<?xml version="1.0" encoding="UTF-8" standalone="no"?>
<!-- Created with Inkscape (http://www.inkscape.org/) -->

<svg
   xml:space="preserve"
   inkscape:version="1.2.1 (9c6d41e410, 2022-07-14, custom)"
   id="svg14392"
   version="1.1"
   viewBox="0 0 686.89129 484.32413"
   height="1830.5164"
   width="2596.1245"
   sodipodi:docname="coopmaths_export.svg"
   xmlns:inkscape="http://www.inkscape.org/namespaces/inkscape"
   xmlns:sodipodi="http://sodipodi.sourceforge.net/DTD/sodipodi-0.dtd"
   xmlns="http://www.w3.org/2000/svg"
   xmlns:svg="http://www.w3.org/2000/svg"
   xmlns:rdf="http://www.w3.org/1999/02/22-rdf-syntax-ns#"
   xmlns:cc="http://creativecommons.org/ns#"
   xmlns:dc="http://purl.org/dc/elements/1.1/"
   xmlns:ns5="http://www.iki.fi/pav/software/textext/"><sodipodi:namedview
     id="namedview14394"
     pagecolor="#ffffff"
     bordercolor="#eeeeee"
     borderopacity="1"
     inkscape:showpageshadow="0"
     inkscape:pageopacity="0"
     inkscape:pagecheckerboard="false"
     inkscape:deskcolor="#eaeaea"
     inkscape:document-units="px"
     showgrid="false"
     inkscape:zoom="0.35"
     inkscape:cx="-900"
     inkscape:cy="674.28571"
     inkscape:window-width="1920"
     inkscape:window-height="1051"
     inkscape:window-x="1920"
     inkscape:window-y="0"
     inkscape:window-maximized="1"
     inkscape:current-layer="layer1"><inkscape:grid
       type="axonomgrid"
       id="grid21543"
       units="px"
       spacingy="13.229167"
       color="#1ee500"
       opacity="0.14901961"
       empspacing="10" /></sodipodi:namedview><defs
     id="defs14389" /><g
     inkscape:label="Calque 1"
     inkscape:groupmode="layer"
     id="layer1"
     transform="translate(566.62549,66.542831)"><path
       style="fill:none;fill-opacity:1;stroke:#f15929;stroke-width:2.11667;stroke-linecap:butt;stroke-linejoin:miter;stroke-dasharray:none;stroke-opacity:0.999305"
       d="M -412.4446,291.04167 -160.39512,145.52084"
       id="path25759" /><path
       style="fill:#cb3b0d;fill-opacity:1;stroke:none;stroke-width:0.264583px;stroke-linecap:butt;stroke-linejoin:miter;stroke-opacity:1"
       d="m -133.04363,33.497672 5.43722,1.75492 -1.77784,-1.001567 z"
       id="path5355" /><path
       style="fill:#cb3b0d;fill-opacity:1;stroke:none;stroke-width:0.264583px;stroke-linecap:butt;stroke-linejoin:miter;stroke-opacity:1"
       d="m -47.402121,-63.06554 5.955535,1.909686 -3.011212,-0.400047 z"
       id="path5706" /><path
       style="fill:#cb3b0d;fill-opacity:1;stroke:none;stroke-width:0.264583px;stroke-linecap:butt;stroke-linejoin:miter;stroke-opacity:1"
       d="m -34.836274,-47.285121 4.137383,1.265093 -2.601195,-0.250299 z"
       id="path5708"
       sodipodi:nodetypes="cccc" /><g
       id="g15202"
       transform="translate(-254.41876,179.24701)"><path
         style="display:inline;fill:#cccccc;fill-opacity:1;stroke:none;stroke-width:0.264583px;stroke-linecap:butt;stroke-linejoin:miter;stroke-opacity:1"
         d="m 136.87438,156.10417 82.48894,-47.625 a 3.0551432,3.0551432 0 0 1 4.58271,2.64583 v 31.75001 a 9.1654287,9.1654287 0 0 1 -4.58271,7.93749 l -82.48894,47.62501 a 3.0551429,3.0551429 0 0 1 -4.58271,-2.64583 v -31.75002 a 9.1654278,9.1654278 0 0 1 4.58271,-7.93749 z"
         id="path11069" /><path
         style="fill:#b3b3b3;fill-opacity:1;stroke:none;stroke-width:0.264583px;stroke-linecap:butt;stroke-linejoin:miter;stroke-opacity:1"
         d="m 219.36332,108.47917 3.30364,0.15998 68.49179,39.52725 -3.05467,2.6e-4 z"
         id="path14564"
         sodipodi:nodetypes="ccccc" /><path
         style="fill:#808080;fill-opacity:1;stroke:none;stroke-width:0.0264583;stroke-linecap:butt;stroke-linejoin:miter;stroke-dasharray:none;stroke-opacity:1"
         d="m 132.29167,195.79168 c 0,0 -0.12677,1.69463 1.71139,2.74376 1.83816,1.04913 68.55671,39.58943 68.55671,39.58943 0,0 -1.52733,-0.86391 -1.52733,-2.64569 -4.51513,-2.60681 -68.74077,-39.6875 -68.74077,-39.6875 z"
         id="path13427"
         sodipodi:nodetypes="csccc" /><path
         style="fill:#b3b3b3;fill-opacity:1;stroke:none;stroke-width:0.264583px;stroke-linecap:butt;stroke-linejoin:miter;stroke-opacity:1"
         d="m 136.87438,156.10417 82.48894,-47.625 68.74076,39.6875 -82.48893,47.625 z"
         id="path13573" /><path
         style="fill:#808080;fill-opacity:1;stroke:none;stroke-width:0.264583px;stroke-linecap:butt;stroke-linejoin:miter;stroke-opacity:1"
         d="m 132.29167,195.79168 68.74077,39.6875 v -31.75002 l -68.74077,-39.6875 z"
         id="path14008" /><path
         style="fill:#b3b3b3;fill-opacity:1;stroke:none;stroke-width:0.264583px;stroke-linecap:butt;stroke-linejoin:miter;stroke-opacity:1"
         d="m 132.29167,164.04166 c 0,0 -0.46024,-5.29166 4.58271,-7.93749 5.32205,3.07269 68.74077,39.6875 68.74077,39.6875 0,0 -4.58271,1.91325 -4.58271,7.93749 -4.96703,-2.30236 -68.74077,-39.6875 -68.74077,-39.6875 z"
         id="path14217"
         sodipodi:nodetypes="ccccc" /><path
         style="display:inline;fill:#cccccc;fill-opacity:1;stroke:none;stroke-width:0.264583px;stroke-linecap:butt;stroke-linejoin:miter;stroke-opacity:1"
         d="m 205.61515,195.79167 82.48894,-47.625 a 3.0551432,3.0551432 30.000002 0 1 4.58271,2.64583 v 31.75001 A 9.1654287,9.1654287 120 0 1 288.10409,190.5 l -82.48894,47.62501 a 3.0551429,3.0551429 30 0 1 -4.58271,-2.64583 v -31.75002 a 9.1654278,9.1654278 120 0 1 4.58271,-7.93749 z"
         id="path10084" /><path
         style="display:inline;fill:#808080;stroke:none;stroke-width:0.264583px;stroke-linecap:butt;stroke-linejoin:miter;stroke-opacity:1"
         d="m 221.73722,197.06692 a 7.6384577,7.6384577 0 0 1 11.37424,6.75757 22.913795,22.913795 0 0 1 -11.53935,19.7961 7.6384577,7.6384577 0 0 1 -11.37424,-6.75757 22.913795,22.913795 0 0 1 11.53935,-19.7961 z"
         id="path10086" /><path
         style="fill:#808080;fill-opacity:1;stroke:none;stroke-width:0.264583px;stroke-linecap:butt;stroke-linejoin:miter;stroke-opacity:1"
         d="m 213.8301,223.46226 8.82251,5.4336 -3.21359,-4.46922 z"
         id="path10787"
         sodipodi:nodetypes="cccc" /><path
         style="fill:#808080;fill-opacity:1;stroke:none;stroke-width:0.264583px;stroke-linecap:butt;stroke-linejoin:miter;stroke-opacity:1"
         d="m 229.48166,197.22674 8.87802,5.47237 -5.31976,-0.0172 z"
         id="path10789"
         sodipodi:nodetypes="cccc" /><path
         style="display:inline;fill:#b3b3b3;fill-opacity:1;stroke:none;stroke-width:0.264583px;stroke-linecap:butt;stroke-linejoin:miter;stroke-opacity:1"
         d="m 230.73214,202.60991 a 7.6384577,7.6384577 0 0 1 11.37424,6.75757 22.913795,22.913795 0 0 1 -11.53935,19.7961 7.6384577,7.6384577 0 0 1 -11.37424,-6.75757 22.913795,22.913795 0 0 1 11.53935,-19.7961 z"
         id="path10092" /><path
         style="display:inline;fill:#f15929;fill-opacity:1;stroke:none;stroke-width:0.207718px;stroke-linecap:butt;stroke-linejoin:miter;stroke-opacity:1"
         d="m 230.7144,205.46342 a 5.996772,5.996772 0 0 1 8.92964,5.3052 17.989077,17.989077 0 0 1 -9.05927,15.54145 5.996772,5.996772 0 0 1 -8.92964,-5.3052 17.989077,17.989077 0 0 1 9.05927,-15.54145 z"
         id="path10791" /><path
         style="fill:#e6e6e6;stroke:none;stroke-width:0.264583px;stroke-linecap:butt;stroke-linejoin:miter;stroke-opacity:1"
         d="m 150.65188,153.4414 a 4.5827443,4.5827443 0 0 1 4.58272,0.0169 1.5276682,1.5276682 0 0 1 -0.0293,2.64584 4.5827573,4.5827573 0 0 1 -4.58272,-0.0169 1.5276668,1.5276668 0 0 1 0.0293,-2.64583 z"
         id="path14888" /><path
         style="fill:#e6e6e6;stroke:none;stroke-width:0.264583px;stroke-linecap:butt;stroke-linejoin:miter;stroke-opacity:1"
         d="m 164.47443,145.5276 a 4.5827443,4.5827443 0 0 1 4.58272,0.0169 1.5276682,1.5276682 0 0 1 -0.0293,2.64584 4.5827573,4.5827573 0 0 1 -4.58272,-0.0169 1.5276668,1.5276668 0 0 1 0.0293,-2.64583 z"
         id="path14892" /><path
         style="fill:#e6e6e6;stroke:none;stroke-width:0.264583px;stroke-linecap:butt;stroke-linejoin:miter;stroke-opacity:1"
         d="m 178.14931,137.64989 a 4.5827443,4.5827443 0 0 1 4.58272,0.0169 1.5276682,1.5276682 0 0 1 -0.0293,2.64584 4.5827573,4.5827573 0 0 1 -4.58272,-0.0169 1.5276668,1.5276668 0 0 1 0.0293,-2.64583 z"
         id="path14894" /><path
         style="fill:#e6e6e6;fill-opacity:1;stroke:none;stroke-width:0.264583px;stroke-linecap:butt;stroke-linejoin:miter;stroke-opacity:1"
         d="M 256.02505,177.27084 288.10408,158.75 v 2.62495 l -32.07903,18.48054 z"
         id="path14896"
         sodipodi:nodetypes="ccccc" /><path
         style="fill:#e6e6e6;fill-opacity:1;stroke:none;stroke-width:0.264583px;stroke-linecap:butt;stroke-linejoin:miter;stroke-opacity:1"
         d="m 256.02505,182.70512 32.07903,-18.52084 v 2.62495 l -32.07903,18.48054 z"
         id="path15174"
         sodipodi:nodetypes="ccccc" /><path
         style="fill:#e6e6e6;fill-opacity:1;stroke:none;stroke-width:0.264583px;stroke-linecap:butt;stroke-linejoin:miter;stroke-opacity:1"
         d="m 256.02505,187.91074 32.07903,-18.52084 v 2.62495 l -32.07903,18.48054 z"
         id="path15176"
         sodipodi:nodetypes="ccccc" /><path
         style="fill:#e6e6e6;fill-opacity:1;stroke:none;stroke-width:0.264583px;stroke-linecap:butt;stroke-linejoin:miter;stroke-opacity:1"
         d="m 256.02505,193.1277 32.07903,-18.52084 v 2.62495 l -32.07903,18.48054 z"
         id="path15178"
         sodipodi:nodetypes="ccccc" /><path
         style="fill:#e6e6e6;fill-opacity:1;stroke:none;stroke-width:0.264583px;stroke-linecap:butt;stroke-linejoin:miter;stroke-opacity:1"
         d="m 256.02505,198.69464 32.07903,-18.52084 v 2.62495 l -32.07903,18.48054 z"
         id="path15180"
         sodipodi:nodetypes="ccccc" /></g><g
       id="g24419"
       transform="translate(-60.469652,25.224282)"><path
         style="fill:#333333;stroke:none;stroke-width:0.636558px;stroke-linecap:butt;stroke-linejoin:miter;stroke-opacity:1"
         d="m -285.64556,306.36829 v -95.48376 l -137.81895,-79.56981 v 95.48377 z"
         id="path12274" /><path
         style="fill:#f15929;fill-opacity:1;stroke:none;stroke-width:0.636558px;stroke-linecap:butt;stroke-linejoin:miter;stroke-opacity:1"
         d="m -417.80963,141.11854 v 82.75261 l 126.79345,73.20423 v -82.75261 z"
         id="path12276" /><path
         style="fill:#b3b3b3;fill-opacity:1;stroke:none;stroke-width:0.636558px;stroke-linecap:butt;stroke-linejoin:miter;stroke-opacity:1"
         d="m -423.46451,131.31473 5.51276,-3.1828 137.81895,79.56982 -5.51276,3.18279 z"
         id="path12278" /><path
         style="fill:#cccccc;fill-opacity:1;stroke:none;stroke-width:0.636558px;stroke-linecap:butt;stroke-linejoin:miter;stroke-opacity:1"
         d="m -285.64556,210.88454 5.51276,-3.18279 v 95.48376 l -5.51276,3.1828 z"
         id="path12280" /><path
         style="fill:#ececec;fill-opacity:1;stroke:none;stroke-width:0.636558px;stroke-linecap:butt;stroke-linejoin:miter;stroke-opacity:1"
         d="m -423.46451,226.7985 -82.69137,47.74189 137.81896,79.56981 82.69136,-47.74189 z"
         id="path12282" /><path
         style="fill:#808080;fill-opacity:1;stroke:none;stroke-width:0.636558px;stroke-linecap:butt;stroke-linejoin:miter;stroke-opacity:1"
         d="m -506.15588,274.54039 v 6.36558 l 137.81896,79.5698 v -6.36557 z"
         id="path12422" /><path
         style="fill:#cccccc;fill-opacity:1;stroke:none;stroke-width:0.636558px;stroke-linecap:butt;stroke-linejoin:miter;stroke-opacity:1"
         d="m -368.33692,360.47577 88.20412,-50.92466 v -6.3656 l -88.20412,50.92469 z"
         id="path12424" /><path
         style="fill:#cccccc;stroke:none;stroke-width:0.636558px;stroke-linecap:butt;stroke-linejoin:miter;stroke-opacity:1"
         d="m -423.46451,233.16409 126.79343,73.20422 -44.10205,25.46233 -126.79344,-73.20421 z"
         id="path12426"
         sodipodi:nodetypes="ccccc" /><path
         style="fill:#999999;stroke:none;stroke-width:0.636558px;stroke-linecap:butt;stroke-linejoin:miter;stroke-opacity:1"
         d="m -423.46451,290.45435 -22.05103,12.73116 27.56379,15.91398 22.05103,-12.73118 z"
         id="path12428" /><g
         aria-label="COOPMATHS"
         id="text19309"
         style="font-weight:bold;font-size:10.5833px;line-height:1.25;font-family:'Source Sans Pro';-inkscape-font-specification:'Source Sans Pro, Bold';fill:#ffffff;stroke-width:0.264583"
         transform="matrix(0.93288938,0.53860392,0,1.0772136,-274.20622,-123.28242)"><path
           d="m -145.38043,336.58724 c 0.86783,0 1.62983,-0.32809 2.23308,-1.016 l -0.85725,-0.97367 c -0.32808,0.34925 -0.762,0.5715 -1.32291,0.5715 -0.96308,0 -1.60867,-0.79374 -1.60867,-2.16957 0,-1.3335 0.73025,-2.13783 1.64042,-2.13783 0.48683,0 0.84666,0.15875 1.18533,0.47625 l 0.86783,-0.99483 c -0.47625,-0.49742 -1.19592,-0.89958 -2.0955,-0.89958 -1.73566,0 -3.28082,1.32291 -3.28082,3.61949 0,2.32832 1.48166,3.52424 3.23849,3.52424 z"
           id="path19311"
           style="fill:#ffffff" /><path
           d="m -139.6972,336.58724 c 1.87325,0 3.15383,-1.34408 3.15383,-3.59833 0,-2.25424 -1.28058,-3.5454 -3.15383,-3.5454 -1.87324,0 -3.15382,1.28058 -3.15382,3.5454 0,2.25425 1.28058,3.59833 3.15382,3.59833 z m 0,-1.41817 c -0.89958,0 -1.47108,-0.84666 -1.47108,-2.18016 0,-1.34408 0.5715,-2.12724 1.47108,-2.12724 0.91017,0 1.47108,0.78316 1.47108,2.12724 0,1.3335 -0.56091,2.18016 -1.47108,2.18016 z"
           id="path19313"
           style="fill:#ffffff" /><path
           d="m -132.42647,336.58724 c 1.87325,0 3.15382,-1.34408 3.15382,-3.59833 0,-2.25424 -1.28057,-3.5454 -3.15382,-3.5454 -1.87324,0 -3.15382,1.28058 -3.15382,3.5454 0,2.25425 1.28058,3.59833 3.15382,3.59833 z m 0,-1.41817 c -0.89958,0 -1.47108,-0.84666 -1.47108,-2.18016 0,-1.34408 0.5715,-2.12724 1.47108,-2.12724 0.91017,0 1.47108,0.78316 1.47108,2.12724 0,1.3335 -0.56091,2.18016 -1.47108,2.18016 z"
           id="path19315"
           style="fill:#ffffff" /><path
           d="m -127.99206,336.46024 h 1.65099 v -2.286 h 0.81492 c 1.44991,0 2.70932,-0.71966 2.70932,-2.37066 0,-1.69332 -1.23825,-2.23307 -2.75166,-2.23307 h -2.42357 z m 1.65099,-3.58774 v -2.00025 h 0.67733 c 0.80433,0 1.23825,0.24342 1.23825,0.93133 0,0.68792 -0.381,1.06892 -1.19591,1.06892 z"
           id="path19317"
           style="fill:#ffffff" /><path
           d="m -121.64208,336.46024 h 1.48166 v -2.39183 c 0,-0.67733 -0.13758,-1.85208 -0.22225,-2.52941 h 0.0423 l 0.55033,1.79916 0.92074,2.53999 h 0.93134 l 0.93133,-2.53999 0.57149,-1.79916 h 0.0423 c -0.0847,0.67733 -0.22225,1.85208 -0.22225,2.52941 v 2.39183 h 1.49224 v -6.88973 h -1.79916 l -1.04774,2.99507 c -0.13759,0.40217 -0.24342,0.81492 -0.37042,1.24883 h -0.0423 c -0.127,-0.43391 -0.24342,-0.84666 -0.37042,-1.24883 l -1.09008,-2.99507 h -1.79916 z"
           id="path19319"
           style="fill:#ffffff" /><path
           d="m -111.8631,333.01008 c 0.17991,-0.67733 0.35983,-1.49225 0.52916,-2.21191 h 0.0423 c 0.17991,0.71966 0.35983,1.53458 0.53975,2.21191 l 0.14816,0.59266 h -1.40758 z m -2.55058,3.45016 h 1.68275 l 0.40216,-1.5875 h 2.04258 l 0.40217,1.5875 h 1.73566 l -2.14841,-6.88973 h -1.9685 z"
           id="path19321"
           style="fill:#ffffff" /><path
           d="m -106.88896,336.46024 h 1.64041 v -5.5139 h 1.87325 v -1.37583 h -5.3869 v 1.37583 h 1.87324 z"
           id="path19323"
           style="fill:#ffffff" /><path
           d="m -102.31697,336.46024 h 1.65099 v -2.83633 h 2.275414 v 2.83633 h 1.640411 v -6.88973 h -1.640411 v 2.62466 h -2.275414 v -2.62466 h -1.65099 z"
           id="path19325"
           style="fill:#ffffff" /><path
           d="m -93.024828,336.58724 c 1.661578,0 2.624658,-1.00542 2.624658,-2.159 0,-0.96308 -0.507998,-1.53458 -1.365245,-1.87324 l -0.857247,-0.34925 c -0.613832,-0.24342 -1.047747,-0.381 -1.047747,-0.78317 0,-0.35983 0.328082,-0.56091 0.836081,-0.56091 0.433915,0 0.910163,0.17992 1.375829,0.508 l 0.857247,-1.06891 c -0.592665,-0.55034 -1.407579,-0.85725 -2.233076,-0.85725 -1.460496,0 -2.497659,0.93133 -2.497659,2.08491 0,0.99483 0.666748,1.59808 1.396995,1.88383 l 0.878414,0.38099 c 0.603248,0.24342 0.973664,0.37042 0.973664,0.77258 0,0.37042 -0.285749,0.60325 -0.910164,0.60325 -0.582081,0 -1.248829,-0.23283 -1.735661,-0.65616 l -0.867831,1.06891 c 0.719665,0.68792 1.640412,1.00542 2.571742,1.00542 z"
           id="path19327"
           style="fill:#ffffff" /></g><path
         style="fill:none;stroke:#ffffff;stroke-width:0.0758145px;stroke-linecap:butt;stroke-linejoin:miter;stroke-opacity:1"
         d="m -350.10364,227.7302 24.69769,14.25922 -24.69769,-30.55022 z"
         id="path19342" /><path
         style="fill:none;stroke:#ffffff;stroke-width:0.396875;stroke-linecap:butt;stroke-linejoin:miter;stroke-dasharray:none;stroke-opacity:1"
         d="m -350.10364,227.7302 -14.11297,-8.14813 v -16.291 l 14.11297,8.14813 z"
         id="path19344" /><path
         style="fill:none;stroke:#ffffff;stroke-width:0.396875;stroke-linecap:butt;stroke-linejoin:miter;stroke-dasharray:none;stroke-opacity:1"
         d="m -325.40595,241.98942 v 28.50925 l -24.69769,-14.25922 V 227.7302 Z"
         id="path19346"
         sodipodi:nodetypes="ccccc" /><path
         id="path19354"
         style="fill:none;stroke:#ffffff;stroke-width:0.396875;stroke-linecap:butt;stroke-linejoin:miter;stroke-dasharray:none;stroke-opacity:1"
         d="m -335.99067,191.07807 24.69769,30.55023 v 0 0 m -24.69769,-30.55023 -14.11297,20.36113 v 0 0 m 38.81066,10.18909 -14.11296,20.36113 v 0 0 m -24.6977,-30.55022 24.69769,30.55022 v 0 0" /><g
         id="g19732"
         transform="matrix(0.26670175,0.15398033,0,0.30786142,-310.7757,103.87107)"
         style="fill:#ffffff"><g
           transform="matrix(1.89867,0,0,1.89867,-176.333,439.308)"
           ns5:version="1.8.2"
           ns5:texconverter="pdflatex"
           ns5:pdfconverter="inkscape"
           ns5:text="$b^2$"
           ns5:preamble="/home/sylcha/.config/inkscape/extensions/textext/default_packages.tex"
           ns5:scale="5.382042247532443"
           ns5:alignment="middle center"
           ns5:stroke-to-path="0"
           ns5:inkscapeversion="1.2.1"
           ns5:jacobian_sqrt="1.89867"
           id="g20022"
           style="fill:#ffffff"><defs
   id="id-8b301b4f-b7af-4633-9593-fd8717b7c9c7" />
  <g
   fill="#000000"
   fill-opacity="1"
   id="id-107bcaee-d702-4455-a469-cff70d964679"
   transform="translate(-149.181,-126.524)"
   style="fill:#ffffff">
    <g
   transform="translate(148.712,134.765)"
   id="g20340"
   style="fill:#ffffff"><path
   d="m 2.375,-6.8125 c 0,0 0,-0.109375 -0.125,-0.109375 -0.21875,0 -0.953125,0.078125 -1.21875,0.109375 -0.078125,0 -0.1875,0.015625 -0.1875,0.1875 0,0.125 0.09375,0.125 0.25,0.125 0.46875,0 0.484375,0.0625 0.484375,0.171875 0,0.0625 -0.078125,0.40625 -0.125,0.609375 l -0.828125,3.25 c -0.109375,0.5 -0.15625,0.671875 -0.15625,1.015625 0,0.9375 0.53125,1.5625 1.265625,1.5625 1.171875,0 2.40625,-1.484375 2.40625,-2.921875 0,-0.90625 -0.53125,-1.59375 -1.328125,-1.59375 -0.453125,0 -0.875,0.296875 -1.171875,0.59375 z M 1.453125,-3.046875 C 1.5,-3.265625 1.5,-3.28125 1.59375,-3.390625 2.078125,-4.03125 2.53125,-4.1875 2.796875,-4.1875 c 0.359375,0 0.625,0.296875 0.625,0.9375 0,0.59375 -0.328125,1.734375 -0.515625,2.109375 -0.328125,0.671875 -0.78125,1.03125 -1.171875,1.03125 -0.34375,0 -0.671875,-0.265625 -0.671875,-1 0,-0.203125 0,-0.390625 0.15625,-1.015625 z m 0,0"
   id="id-cffcf372-6f70-460b-8501-8098d2cf7316"
   style="fill:#ffffff" />
      </g></g>
  <g
   fill="#000000"
   fill-opacity="1"
   id="id-1ffef698-4bc9-4c8c-9a54-3ea10cff2c53"
   transform="translate(-149.181,-126.524)"
   style="fill:#ffffff">
    <g
   transform="translate(152.988,131.149)"
   id="g20344"
   style="fill:#ffffff"><path
   d="M 3.515625,-1.265625 H 3.28125 c -0.015625,0.15625 -0.09375,0.5625 -0.1875,0.625 C 3.046875,-0.59375 2.515625,-0.59375 2.40625,-0.59375 H 1.125 c 0.734375,-0.640625 0.984375,-0.84375 1.390625,-1.171875 0.515625,-0.40625 1,-0.84375 1,-1.5 0,-0.84375 -0.734375,-1.359375 -1.625,-1.359375 -0.859375,0 -1.453125,0.609375 -1.453125,1.25 0,0.34375 0.296875,0.390625 0.375,0.390625 0.15625,0 0.359375,-0.125 0.359375,-0.375 0,-0.125 -0.046875,-0.375 -0.40625,-0.375 C 0.984375,-4.21875 1.453125,-4.375 1.78125,-4.375 c 0.703125,0 1.0625,0.546875 1.0625,1.109375 0,0.609375 -0.4375,1.078125 -0.65625,1.328125 L 0.515625,-0.265625 C 0.4375,-0.203125 0.4375,-0.1875 0.4375,0 h 2.875 z m 0,0"
   id="id-1061ebf5-79f0-40b0-b827-db46c0c88bc9"
   style="fill:#ffffff" />
      </g></g>
</g><g
           transform="matrix(1.89867,0,0,1.89867,-105.96467,507.39406)"
           ns5:version="1.8.2"
           ns5:texconverter="pdflatex"
           ns5:pdfconverter="inkscape"
           ns5:text="$a^2$"
           ns5:preamble="/home/sylcha/.config/inkscape/extensions/textext/default_packages.tex"
           ns5:scale="5.382042247532443"
           ns5:alignment="middle center"
           ns5:stroke-to-path="0"
           ns5:inkscapeversion="1.2.1"
           ns5:jacobian_sqrt="1.89867"
           id="g20686"
           style="fill:#ffffff"><defs
   id="id-78c4655c-411c-4ca6-86f2-3c34959f7e04" />
  <g
   fill="#000000"
   fill-opacity="1"
   id="id-4e6d795d-51d5-4159-8130-34ff17a79ad4"
   transform="translate(-149.118,-126.524)"
   style="fill:#ffffff">
    <g
   transform="translate(148.712,134.765)"
   id="g20679"
   style="fill:#ffffff"><path
   d="M 3.71875,-3.765625 C 3.53125,-4.140625 3.25,-4.40625 2.796875,-4.40625 c -1.15625,0 -2.390625,1.46875 -2.390625,2.921875 0,0.9375 0.546875,1.59375 1.3125,1.59375 0.203125,0 0.703125,-0.046875 1.296875,-0.75 0.078125,0.421875 0.4375,0.75 0.90625,0.75 0.359375,0 0.578125,-0.234375 0.75,-0.546875 0.15625,-0.359375 0.296875,-0.96875 0.296875,-0.984375 0,-0.109375 -0.09375,-0.109375 -0.125,-0.109375 -0.09375,0 -0.109375,0.046875 -0.140625,0.1875 -0.171875,0.640625 -0.34375,1.234375 -0.75,1.234375 -0.28125,0 -0.296875,-0.265625 -0.296875,-0.453125 0,-0.21875 0.015625,-0.3125 0.125,-0.75 C 3.890625,-1.71875 3.90625,-1.828125 4,-2.203125 L 4.359375,-3.59375 c 0.0625,-0.28125 0.0625,-0.296875 0.0625,-0.34375 0,-0.171875 -0.109375,-0.265625 -0.28125,-0.265625 -0.25,0 -0.390625,0.21875 -0.421875,0.4375 z M 3.078125,-1.1875 C 3.015625,-1 3.015625,-0.984375 2.875,-0.8125 2.4375,-0.265625 2.03125,-0.109375 1.75,-0.109375 c -0.5,0 -0.640625,-0.546875 -0.640625,-0.9375 0,-0.5 0.3125,-1.71875 0.546875,-2.1875 0.3125,-0.578125 0.75,-0.953125 1.15625,-0.953125 0.640625,0 0.78125,0.8125 0.78125,0.875 0,0.0625 -0.015625,0.125 -0.03125,0.171875 z m 0,0"
   id="id-a03d6cf7-a0ac-4def-9c6b-91bb185e7baa"
   style="fill:#ffffff" />
      </g></g>
  <g
   fill="#000000"
   fill-opacity="1"
   id="id-2e206c6a-3983-4878-b1d6-a830bb5c25d1"
   transform="translate(-149.118,-126.524)"
   style="fill:#ffffff">
    <g
   transform="translate(153.978,131.149)"
   id="g20683"
   style="fill:#ffffff"><path
   d="M 3.515625,-1.265625 H 3.28125 c -0.015625,0.15625 -0.09375,0.5625 -0.1875,0.625 C 3.046875,-0.59375 2.515625,-0.59375 2.40625,-0.59375 H 1.125 c 0.734375,-0.640625 0.984375,-0.84375 1.390625,-1.171875 0.515625,-0.40625 1,-0.84375 1,-1.5 0,-0.84375 -0.734375,-1.359375 -1.625,-1.359375 -0.859375,0 -1.453125,0.609375 -1.453125,1.25 0,0.34375 0.296875,0.390625 0.375,0.390625 0.15625,0 0.359375,-0.125 0.359375,-0.375 0,-0.125 -0.046875,-0.375 -0.40625,-0.375 C 0.984375,-4.21875 1.453125,-4.375 1.78125,-4.375 c 0.703125,0 1.0625,0.546875 1.0625,1.109375 0,0.609375 -0.4375,1.078125 -0.65625,1.328125 L 0.515625,-0.265625 C 0.4375,-0.203125 0.4375,-0.1875 0.4375,0 h 2.875 z m 0,0"
   id="id-178ca17f-a210-4738-9132-2fa96e517be2"
   style="fill:#ffffff" />
      </g></g>
</g><g
           transform="matrix(1.89867,0,0,1.89867,-79.121937,390.4792)"
           ns5:version="1.8.2"
           ns5:texconverter="pdflatex"
           ns5:pdfconverter="inkscape"
           ns5:text="$c^2$"
           ns5:preamble="/home/sylcha/.config/inkscape/extensions/textext/default_packages.tex"
           ns5:scale="5.382042247532443"
           ns5:alignment="middle center"
           ns5:stroke-to-path="0"
           ns5:inkscapeversion="1.2.1"
           ns5:jacobian_sqrt="1.89867"
           id="g21056"
           style="fill:#ffffff"><defs
   id="id-a92a36f7-7ec9-4458-9b09-9fcb929d67b3" />
  <g
   fill="#000000"
   fill-opacity="1"
   id="id-77559f11-049a-4bb1-a97c-e4757d71d425"
   transform="translate(-149.118,-126.524)"
   style="fill:#ffffff">
    <g
   transform="translate(148.712,134.765)"
   id="g21049"
   style="fill:#ffffff"><path
   d="m 3.953125,-3.78125 c -0.171875,0 -0.296875,0 -0.4375,0.125 -0.171875,0.15625 -0.1875,0.328125 -0.1875,0.390625 0,0.25 0.1875,0.359375 0.375,0.359375 0.28125,0 0.546875,-0.25 0.546875,-0.640625 0,-0.484375 -0.46875,-0.859375 -1.171875,-0.859375 -1.34375,0 -2.671875,1.421875 -2.671875,2.828125 0,0.90625 0.578125,1.6875 1.625,1.6875 1.421875,0 2.25,-1.0625 2.25,-1.171875 0,-0.0625 -0.046875,-0.140625 -0.109375,-0.140625 -0.0625,0 -0.078125,0.03125 -0.140625,0.109375 -0.78125,0.984375 -1.875,0.984375 -1.984375,0.984375 -0.625,0 -0.90625,-0.484375 -0.90625,-1.09375 0,-0.40625 0.203125,-1.375 0.546875,-1.984375 0.3125,-0.578125 0.859375,-1 1.40625,-1 0.328125,0 0.71875,0.125 0.859375,0.40625 z m 0,0"
   id="id-9955f32c-1697-44d7-b24b-9a3ace712e17"
   style="fill:#ffffff" />
      </g></g>
  <g
   fill="#000000"
   fill-opacity="1"
   id="id-53c35f72-46d8-479c-9f69-f5643f66aa28"
   transform="translate(-149.118,-126.524)"
   style="fill:#ffffff">
    <g
   transform="translate(153.024,131.149)"
   id="g21053"
   style="fill:#ffffff"><path
   d="M 3.515625,-1.265625 H 3.28125 c -0.015625,0.15625 -0.09375,0.5625 -0.1875,0.625 C 3.046875,-0.59375 2.515625,-0.59375 2.40625,-0.59375 H 1.125 c 0.734375,-0.640625 0.984375,-0.84375 1.390625,-1.171875 0.515625,-0.40625 1,-0.84375 1,-1.5 0,-0.84375 -0.734375,-1.359375 -1.625,-1.359375 -0.859375,0 -1.453125,0.609375 -1.453125,1.25 0,0.34375 0.296875,0.390625 0.375,0.390625 0.15625,0 0.359375,-0.125 0.359375,-0.375 0,-0.125 -0.046875,-0.375 -0.40625,-0.375 C 0.984375,-4.21875 1.453125,-4.375 1.78125,-4.375 c 0.703125,0 1.0625,0.546875 1.0625,1.109375 0,0.609375 -0.4375,1.078125 -0.65625,1.328125 L 0.515625,-0.265625 C 0.4375,-0.203125 0.4375,-0.1875 0.4375,0 h 2.875 z m 0,0"
   id="id-f7cea486-54ad-4df5-b489-c856103ec24e"
   style="fill:#ffffff" />
      </g></g>
</g></g><path
         style="fill:none;stroke:#ffffff;stroke-width:0.661458;stroke-linecap:butt;stroke-linejoin:miter;stroke-dasharray:none;stroke-opacity:1"
         d="m -412.02436,173.04055 43.78391,23.9669 -0.32195,0.034"
         id="path23360" /><path
         style="fill:none;stroke:#ffffff;stroke-width:0.661458;stroke-linecap:butt;stroke-linejoin:miter;stroke-dasharray:none;stroke-opacity:1"
         d="m -412.02436,177.78806 43.78391,23.9669 -0.32195,0.034"
         id="path23362" /><path
         style="fill:none;stroke:#ffffff;stroke-width:0.661458;stroke-linecap:butt;stroke-linejoin:miter;stroke-dasharray:none;stroke-opacity:1"
         d="m -412.02436,182.53556 43.78391,23.9669 -0.32195,0.034"
         id="path23364" /><path
         style="fill:none;stroke:#ffffff;stroke-width:0.661458;stroke-linecap:butt;stroke-linejoin:miter;stroke-dasharray:none;stroke-opacity:1"
         d="m -412.02436,187.28307 43.78391,23.9669 -0.32195,0.034"
         id="path23366" /><path
         style="fill:none;stroke:#ffffff;stroke-width:0.661458;stroke-linecap:butt;stroke-linejoin:miter;stroke-dasharray:none;stroke-opacity:1"
         d="m -412.02436,192.03057 43.78391,23.9669 -0.32195,0.034"
         id="path23368" /><path
         style="fill:none;stroke:#ffffff;stroke-width:0.661458;stroke-linecap:butt;stroke-linejoin:miter;stroke-dasharray:none;stroke-opacity:1"
         d="m -412.02436,196.77808 43.78391,23.9669 -0.32195,0.034"
         id="path23370" /><path
         style="fill:none;stroke:#ffffff;stroke-width:0.661458;stroke-linecap:butt;stroke-linejoin:miter;stroke-dasharray:none;stroke-opacity:1"
         d="m -412.02436,211.0206 43.78391,23.9669 -0.32195,0.034"
         id="path23372" /><path
         style="fill:none;stroke:#ffffff;stroke-width:0.661458;stroke-linecap:butt;stroke-linejoin:miter;stroke-dasharray:none;stroke-opacity:1"
         d="m -412.02436,201.52559 43.78391,23.9669 -0.32195,0.034"
         id="path23374" /><path
         style="fill:none;stroke:#ffffff;stroke-width:0.661458;stroke-linecap:butt;stroke-linejoin:miter;stroke-dasharray:none;stroke-opacity:1"
         d="m -412.02436,206.27309 43.78391,23.9669 -0.32195,0.034"
         id="path23376" /></g><g
       id="g24842"
       transform="matrix(0.62166059,0,0,0.62166059,-56.498578,7.6099977)"><path
         style="fill:#b3b3b3;fill-opacity:1;stroke:none;stroke-width:0.264583px;stroke-linecap:butt;stroke-linejoin:miter;stroke-opacity:1"
         d="m -687.41033,-13.227638 91.65965,-52.919726 a 7.6360983,7.6360983 0 0 1 11.45415,6.613056 V 99.221807 a 22.908295,22.908295 0 0 1 -11.45414,19.839163 l -91.65966,52.91973 a 7.636098,7.636098 0 0 1 -11.45415,-6.61305 V 6.6115265 a 22.908294,22.908294 0 0 1 11.45415,-19.8391645 z"
         id="path23778" /><path
         style="fill:#808080;fill-opacity:1;stroke:none;stroke-width:0.264583px;stroke-linecap:butt;stroke-linejoin:miter;stroke-opacity:1"
         d="m -687.40768,13.226111 -11.4568,-6.6145826 V 165.36765 c 0,0 0.50378,4.62749 3.4064,6.35765 3.38735,2.01909 11.86104,6.8657 11.86104,6.8657 l -3.81064,-6.61183 z"
         id="path24786"
         sodipodi:nodetypes="cccsccc" /><path
         style="fill:#b3b3b3;fill-opacity:1;stroke:none;stroke-width:0.264583px;stroke-linecap:butt;stroke-linejoin:miter;stroke-opacity:1"
         d="m -587.74517,-65.919846 11.08102,6.383387 -7.63238,0.0052 z"
         id="path24788" /><path
         style="fill:#cccccc;fill-opacity:1;stroke:none;stroke-width:0.264583px;stroke-linecap:butt;stroke-linejoin:miter;stroke-opacity:1"
         d="m -675.95353,-6.6130549 91.65965,-52.9197251 a 7.6360983,7.6360983 30 0 1 11.45415,6.613055 V 105.83639 a 22.908295,22.908295 120 0 1 -11.45415,19.83917 l -91.65965,52.91972 a 7.636098,7.636098 29.999999 0 1 -11.45415,-6.61305 V 13.22611 a 22.908294,22.908294 120 0 1 11.45415,-19.8391649 z"
         id="path24577" /><path
         style="fill:#e6e6e6;stroke:none;stroke-width:0.264583px;stroke-linecap:butt;stroke-linejoin:miter;stroke-opacity:1"
         d="m -675.95088,6.6145835 91.65435,-52.9166675 V 99.218752 l -91.65435,52.916668 z"
         id="path24559" /><path
         style="fill:#999999;stroke:none;stroke-width:0.264583px;stroke-linecap:butt;stroke-linejoin:miter;stroke-opacity:1"
         d="m -638.07748,139.48792 15.90755,-9.18423 a 2.3353417,2.3353417 29.999987 0 1 3.50301,2.02246 7.0124287,7.0124287 119.98976 0 1 -3.49877,6.06256 l -15.90443,9.22685 a 2.3335461,2.3335461 29.899206 0 1 -3.50454,-2.01514 l -6e-5,-0.0451 a 6.9945112,6.9945112 119.95914 0 1 3.49724,-6.0674 z"
         id="path24565"
         sodipodi:nodetypes="ccccc" /><path
         id="circle4149"
         style="fill:none;fill-opacity:1;stroke:#f15929;stroke-width:2.81828;stroke-linecap:round;stroke-linejoin:miter;stroke-miterlimit:4;stroke-dasharray:none;stroke-dashoffset:0;stroke-opacity:1"
         sodipodi:type="arc"
         sodipodi:cx="-723.65717"
         sodipodi:cy="-293.26389"
         sodipodi:rx="20.991785"
         sodipodi:ry="21.179415"
         sodipodi:start="2.0971792"
         sodipodi:end="0.56319195"
         d="m -734.20363,-274.95153 a 20.991785,21.179415 0 0 1 -10.2314,-21.32831 20.991785,21.179415 0 0 1 15.77561,-17.55334 20.991785,21.179415 0 0 1 22.03677,8.19261 20.991785,21.179415 0 0 1 0.7152,23.68412"
         sodipodi:open="true"
         inkscape:connector-curvature="0"
         sodipodi:arc-type="arc"
         transform="matrix(0.8660254,-0.5,0,1,0,0)" /><path
         id="circle4153"
         style="fill:none;fill-opacity:1;stroke:#f15929;stroke-width:2.81828;stroke-linecap:round;stroke-linejoin:miter;stroke-miterlimit:4;stroke-dasharray:none;stroke-dashoffset:0;stroke-opacity:1"
         sodipodi:type="arc"
         sodipodi:cx="-723.65717"
         sodipodi:cy="-292.25369"
         sodipodi:rx="13.405696"
         sodipodi:ry="13.684229"
         sodipodi:start="2.5857499"
         sodipodi:end="0.45384685"
         d="m -735.04472,-285.03308 a 13.405696,13.684229 0 0 1 2.3198,-17.29938 13.405696,13.684229 0 0 1 17.08306,-0.89008 13.405696,13.684229 0 0 1 4.03329,16.96837"
         sodipodi:open="true"
         inkscape:connector-curvature="0"
         sodipodi:arc-type="arc"
         transform="matrix(0.8660254,-0.5,0,1,0,0)" /><g
         id="g24824"
         style="fill:#cccccc"
         transform="translate(-2.6532157,-3.8787085)"><g
           id="g24822"
           transform="translate(-20.362452,-28.705197)"
           style="fill:#cccccc"><path
             sodipodi:type="inkscape:offset"
             inkscape:radius="-0.45141149"
             inkscape:original="M 21.099609 8 C 19.399609 8 18.099609 9.3 18.099609 11 L 18.099609 21.300781 C 16.999609 20.000781 15.799609 19 14.599609 19 C 13.699609 19 12.9 19.300391 12.5 19.900391 C 12.1 20.400391 11.799219 21.299609 12.199219 22.599609 C 12.599219 23.899609 14.299219 27.5 16.199219 30.5 C 16.899219 31.6 17.599219 32.499219 18.199219 33.199219 C 19.299219 34.599219 20 35.5 20 37 C 20 37.6 20.4 38 21 38 L 33 38 C 33.6 38 34 37.6 34 37 C 34 34.6 34.5 32.699219 35 30.699219 C 35.5 28.699219 36 26.6 36 24 L 36 21 C 36 19.3 34.7 18 33 18 C 32.6 18 32.200391 18.099219 31.900391 18.199219 C 31.500391 16.899219 30.4 16 29 16 C 28.5 16 27.999609 16.100391 27.599609 16.400391 C 27.099609 15.600391 26.199609 15 25.099609 15 C 24.699609 15 24.399609 15.099219 24.099609 15.199219 L 24.099609 11 C 24.099609 9.3 22.799609 8 21.099609 8 z M 21 10 C 21.6 10 22 10.4 22 11 L 22 20 C 22 20.6 22.4 21 23 21 C 23.6 21 24 20.6 24 20 L 24 18 C 24 17.4 24.4 17 25 17 C 25.6 17 26 17.4 26 18 L 26 21 C 26 21.6 26.4 22 27 22 C 27.6 22 28 21.6 28 21 L 28 19 C 28 18.4 28.4 18 29 18 C 29.6 18 30 18.4 30 19 L 30 22 C 30 22.6 30.4 23 31 23 C 31.6 23 32 22.6 32 22 L 32 21 C 32 20.4 32.4 20 33 20 C 33.6 20 34 20.4 34 21 L 34 24 C 34 26.3 33.5 28.199219 33 30.199219 C 32.6 31.999219 32.1 33.8 32 36 L 21.900391 36 C 21.700391 34.3 20.699609 33.2 19.599609 32 C 18.999609 31.2 18.400781 30.5 17.800781 29.5 C 15.800781 26.3 14.3 23.1 14 22 C 13.9 21.5 13.9 21.199609 14 21.099609 C 14.1 20.999609 14.3 21 14.5 21 C 15.2 21 17.1 22.899219 18 25.199219 L 18 26 C 18 26.6 18.4 27 19 27 C 19.6 27 20 26.6 20 26 L 20 11 C 20 10.4 20.4 10 21 10 z "
             id="path24818"
             d="m 21.099609,8.4511719 c -1.469868,0 -2.548828,1.0789594 -2.548828,2.5488281 v 10.300781 a 0.45145663,0.45145663 0 0 1 -0.794922,0.291016 c -1.069223,-1.263628 -2.20723,-2.140625 -3.15625,-2.140625 -0.799555,0 -1.440052,0.272383 -1.724609,0.699219 a 0.45145663,0.45145663 0 0 1 -0.02344,0.03125 c -0.304031,0.380039 -0.58479,1.101873 -0.220703,2.285156 0.363172,1.180307 2.071447,4.826112 3.949219,7.791015 0.686643,1.07901 1.37235,1.961753 1.960938,2.648438 a 0.45145663,0.45145663 0 0 1 0.01367,0.01367 c 1.100572,1.400729 1.896484,2.439482 1.896484,4.080078 0,0.199686 0.05878,0.322449 0.142578,0.40625 0.0838,0.0838 0.206564,0.142578 0.40625,0.142578 h 12 c 0.199686,0 0.322449,-0.05878 0.40625,-0.142578 0.0838,-0.0838 0.142578,-0.206564 0.142578,-0.40625 0,-2.462696 0.514524,-4.413564 1.013672,-6.410156 C 35.061648,28.593252 35.548828,26.542127 35.548828,24 v -3 c 0,-1.469869 -1.078959,-2.548828 -2.548828,-2.548828 -0.325352,0 -0.686138,0.08548 -0.957031,0.175781 A 0.45145663,0.45145663 0 0 1 31.46875,18.332031 C 31.119977,17.19852 30.206706,16.451172 29,16.451172 c -0.439576,0 -0.8348,0.08997 -1.128906,0.310547 a 0.45145663,0.45145663 0 0 1 -0.654297,-0.123047 c -0.424766,-0.679626 -1.181444,-1.1875 -2.117188,-1.1875 -0.325352,0 -0.55809,0.076 -0.857421,0.175781 a 0.45145663,0.45145663 0 0 1 -0.59375,-0.427734 V 11 c 0,-1.4698687 -1.07896,-2.5488281 -2.548829,-2.5488281 z M 21,9.5488281 c 0.400314,0 0.778723,0.1400511 1.044922,0.40625 0.266199,0.2661989 0.40625,0.6446079 0.40625,1.0449219 v 9 c 0,0.199686 0.05878,0.322449 0.142578,0.40625 0.0838,0.0838 0.206564,0.142578 0.40625,0.142578 0.199686,0 0.322449,-0.05878 0.40625,-0.142578 0.0838,-0.0838 0.142578,-0.206564 0.142578,-0.40625 v -2 c 0,-0.400314 0.140051,-0.778723 0.40625,-1.044922 0.266199,-0.266199 0.644608,-0.40625 1.044922,-0.40625 0.400314,0 0.778723,0.140051 1.044922,0.40625 0.266199,0.266199 0.40625,0.644608 0.40625,1.044922 v 3 c 0,0.199686 0.05878,0.322449 0.142578,0.40625 0.0838,0.0838 0.206564,0.142578 0.40625,0.142578 0.199686,0 0.322449,-0.05878 0.40625,-0.142578 0.0838,-0.0838 0.142578,-0.206564 0.142578,-0.40625 v -2 c 0,-0.400314 0.140051,-0.778723 0.40625,-1.044922 0.266199,-0.266199 0.644608,-0.40625 1.044922,-0.40625 0.400314,0 0.778723,0.140051 1.044922,0.40625 0.266199,0.266199 0.40625,0.644608 0.40625,1.044922 v 3 c 0,0.199686 0.05878,0.322449 0.142578,0.40625 0.0838,0.0838 0.206564,0.142578 0.40625,0.142578 0.199686,0 0.322449,-0.05878 0.40625,-0.142578 0.0838,-0.0838 0.142578,-0.206564 0.142578,-0.40625 v -1 c 0,-0.400314 0.140051,-0.778723 0.40625,-1.044922 0.266199,-0.266199 0.644608,-0.40625 1.044922,-0.40625 0.400314,0 0.778723,0.140051 1.044922,0.40625 0.266199,0.266199 0.40625,0.644608 0.40625,1.044922 v 3 c 0,2.365422 -0.514537,4.312055 -1.013672,6.308594 l 0.0039,-0.01172 c -0.40345,1.815526 -0.892826,3.579678 -0.990234,5.722656 A 0.45145663,0.45145663 0 0 1 32,36.451172 H 21.900391 A 0.45145663,0.45145663 0 0 1 21.451172,36.052734 C 21.268949,34.50384 20.366883,33.503929 19.267578,32.304688 a 0.45145663,0.45145663 0 0 1 -0.0293,-0.0332 c -0.588009,-0.784011 -1.201373,-1.503012 -1.820312,-2.533203 l -0.002,-0.002 c -8.56e-4,-0.0014 -0.0011,-0.0025 -0.002,-0.0039 -1.007254,-1.612144 -1.886276,-3.221277 -2.554687,-4.570313 -0.669307,-1.350844 -1.123882,-2.415821 -1.294922,-3.042968 a 0.45145663,0.45145663 0 0 1 -0.0078,-0.03125 c -0.05341,-0.267047 -0.08399,-0.487278 -0.08399,-0.6875 0,-0.200222 -8.21e-4,-0.409335 0.208985,-0.619141 0.156606,-0.156607 0.331654,-0.197642 0.466797,-0.216797 0.135142,-0.01916 0.251856,-0.01563 0.351562,-0.01563 0.379126,0 0.656448,0.179905 0.982422,0.419922 0.325974,0.240017 0.676911,0.568581 1.03125,0.96875 0.708677,0.800338 1.432333,1.886537 1.90625,3.097656 a 0.45145663,0.45145663 0 0 1 0.03125,0.164063 V 26 c 0,0.199686 0.05878,0.322449 0.142578,0.40625 0.0838,0.0838 0.206564,0.142578 0.40625,0.142578 0.199686,0 0.322449,-0.05878 0.40625,-0.142578 0.0838,-0.0838 0.142578,-0.206564 0.142578,-0.40625 V 11 c 0,-0.400314 0.140051,-0.778723 0.40625,-1.0449219 C 20.221277,9.6888792 20.599686,9.5488281 21,9.5488281 Z"
             style="fill:#cccccc;fill-opacity:1;stroke:none"
             transform="matrix(2.3653485,-1.3656346,0,2.7282983,-654.52754,100.37538)" /><path
             style="fill:#cccccc;stroke:none;stroke-width:0.264583px;stroke-linecap:butt;stroke-linejoin:miter;stroke-opacity:1"
             d="m -608.5188,144.9917 -0.0167,-41.71542 c 0,0 0.88582,-4.834831 3.58695,-5.863542 2.70116,-1.02871 4.02304,1.072455 4.02304,2.096196 0,1.023746 -0.081,23.091576 0.17439,25.281896 0.2554,2.19033 1.83539,-1.42443 1.83539,-1.42443 l 0.18722,-7.43353 c 0,0 0.7525,-3.09281 3.35814,-4.69202 2.60567,-1.5992 3.60998,1.12473 3.60995,1.99079 0,0.86606 -0.0634,8.90189 -0.0634,8.90189 0,0 0.7235,0.75428 1.28275,0.29488 0.55928,-0.4594 1.03998,-1.58836 1.16261,-2.54692 0.12263,-0.95855 0.003,-6.55401 0.003,-6.55401 0,0 1.16183,-3.59034 3.23527,-4.55953 2.07341,-0.96919 3.43056,-0.80007 3.62463,0.48454 0.19407,1.28461 -0.013,9.52255 -0.013,9.52255 0,0 0.28307,1.67694 1.20062,1.03537 0.91758,-0.64156 1.4823,-1.75879 1.52914,-2.51304 0.0468,-0.75426 -0.0533,-4.11724 -0.0533,-4.11724 0,0 1.40557,-3.93424 3.38876,-4.73164 1.98318,-0.79741 3.74517,-0.50155 3.64611,3.09313 -0.0991,3.59467 -0.20502,9.86378 -0.20502,9.86378 0,0 -2.06836,18.07525 -3.17371,21.26268 -1.10535,3.18743 -1.11844,11.6567 -1.32241,12.72005 -0.20399,1.06335 -25.91226,15.24416 -25.91226,15.24416 0,0 -0.10996,-2.46078 -1.5267,-4.76563 -1.41671,-2.30486 -3.02826,-2.17814 -5.22163,-4.29921 -2.19334,-2.12107 -8.30085,-10.72181 -9.95492,-13.86189 -1.65407,-3.14007 -4.21656,-7.0154 -2.69436,-9.04006 1.52223,-2.02466 3.76227,-3.36199 5.34744,-2.80174 1.58517,0.56026 5.66039,3.63279 6.17236,5.24078 0.51197,1.60798 1.01489,4.70876 1.01489,4.70876 z"
             id="path24820"
             sodipodi:nodetypes="ccsssccsscsscsscsscsscsscsssssscc" /></g></g><g
         id="g24816"
         transform="translate(0.80947442,0.00992003)"
         style="display:inline"><g
           id="g24799"
           transform="translate(-20.362452,-28.705197)"><path
             sodipodi:type="inkscape:offset"
             inkscape:radius="-0.45141149"
             inkscape:original="M 21.099609 8 C 19.399609 8 18.099609 9.3 18.099609 11 L 18.099609 21.300781 C 16.999609 20.000781 15.799609 19 14.599609 19 C 13.699609 19 12.9 19.300391 12.5 19.900391 C 12.1 20.400391 11.799219 21.299609 12.199219 22.599609 C 12.599219 23.899609 14.299219 27.5 16.199219 30.5 C 16.899219 31.6 17.599219 32.499219 18.199219 33.199219 C 19.299219 34.599219 20 35.5 20 37 C 20 37.6 20.4 38 21 38 L 33 38 C 33.6 38 34 37.6 34 37 C 34 34.6 34.5 32.699219 35 30.699219 C 35.5 28.699219 36 26.6 36 24 L 36 21 C 36 19.3 34.7 18 33 18 C 32.6 18 32.200391 18.099219 31.900391 18.199219 C 31.500391 16.899219 30.4 16 29 16 C 28.5 16 27.999609 16.100391 27.599609 16.400391 C 27.099609 15.600391 26.199609 15 25.099609 15 C 24.699609 15 24.399609 15.099219 24.099609 15.199219 L 24.099609 11 C 24.099609 9.3 22.799609 8 21.099609 8 z M 21 10 C 21.6 10 22 10.4 22 11 L 22 20 C 22 20.6 22.4 21 23 21 C 23.6 21 24 20.6 24 20 L 24 18 C 24 17.4 24.4 17 25 17 C 25.6 17 26 17.4 26 18 L 26 21 C 26 21.6 26.4 22 27 22 C 27.6 22 28 21.6 28 21 L 28 19 C 28 18.4 28.4 18 29 18 C 29.6 18 30 18.4 30 19 L 30 22 C 30 22.6 30.4 23 31 23 C 31.6 23 32 22.6 32 22 L 32 21 C 32 20.4 32.4 20 33 20 C 33.6 20 34 20.4 34 21 L 34 24 C 34 26.3 33.5 28.199219 33 30.199219 C 32.6 31.999219 32.1 33.8 32 36 L 21.900391 36 C 21.700391 34.3 20.699609 33.2 19.599609 32 C 18.999609 31.2 18.400781 30.5 17.800781 29.5 C 15.800781 26.3 14.3 23.1 14 22 C 13.9 21.5 13.9 21.199609 14 21.099609 C 14.1 20.999609 14.3 21 14.5 21 C 15.2 21 17.1 22.899219 18 25.199219 L 18 26 C 18 26.6 18.4 27 19 27 C 19.6 27 20 26.6 20 26 L 20 11 C 20 10.4 20.4 10 21 10 z "
             id="path4143"
             d="m 21.099609,8.4511719 c -1.469868,0 -2.548828,1.0789594 -2.548828,2.5488281 v 10.300781 a 0.45145663,0.45145663 0 0 1 -0.794922,0.291016 c -1.069223,-1.263628 -2.20723,-2.140625 -3.15625,-2.140625 -0.799555,0 -1.440052,0.272383 -1.724609,0.699219 a 0.45145663,0.45145663 0 0 1 -0.02344,0.03125 c -0.304031,0.380039 -0.58479,1.101873 -0.220703,2.285156 0.363172,1.180307 2.071447,4.826112 3.949219,7.791015 0.686643,1.07901 1.37235,1.961753 1.960938,2.648438 a 0.45145663,0.45145663 0 0 1 0.01367,0.01367 c 1.100572,1.400729 1.896484,2.439482 1.896484,4.080078 0,0.199686 0.05878,0.322449 0.142578,0.40625 0.0838,0.0838 0.206564,0.142578 0.40625,0.142578 h 12 c 0.199686,0 0.322449,-0.05878 0.40625,-0.142578 0.0838,-0.0838 0.142578,-0.206564 0.142578,-0.40625 0,-2.462696 0.514524,-4.413564 1.013672,-6.410156 C 35.061648,28.593252 35.548828,26.542127 35.548828,24 v -3 c 0,-1.469869 -1.078959,-2.548828 -2.548828,-2.548828 -0.325352,0 -0.686138,0.08548 -0.957031,0.175781 A 0.45145663,0.45145663 0 0 1 31.46875,18.332031 C 31.119977,17.19852 30.206706,16.451172 29,16.451172 c -0.439576,0 -0.8348,0.08997 -1.128906,0.310547 a 0.45145663,0.45145663 0 0 1 -0.654297,-0.123047 c -0.424766,-0.679626 -1.181444,-1.1875 -2.117188,-1.1875 -0.325352,0 -0.55809,0.076 -0.857421,0.175781 a 0.45145663,0.45145663 0 0 1 -0.59375,-0.427734 V 11 c 0,-1.4698687 -1.07896,-2.5488281 -2.548829,-2.5488281 z M 21,9.5488281 c 0.400314,0 0.778723,0.1400511 1.044922,0.40625 0.266199,0.2661989 0.40625,0.6446079 0.40625,1.0449219 v 9 c 0,0.199686 0.05878,0.322449 0.142578,0.40625 0.0838,0.0838 0.206564,0.142578 0.40625,0.142578 0.199686,0 0.322449,-0.05878 0.40625,-0.142578 0.0838,-0.0838 0.142578,-0.206564 0.142578,-0.40625 v -2 c 0,-0.400314 0.140051,-0.778723 0.40625,-1.044922 0.266199,-0.266199 0.644608,-0.40625 1.044922,-0.40625 0.400314,0 0.778723,0.140051 1.044922,0.40625 0.266199,0.266199 0.40625,0.644608 0.40625,1.044922 v 3 c 0,0.199686 0.05878,0.322449 0.142578,0.40625 0.0838,0.0838 0.206564,0.142578 0.40625,0.142578 0.199686,0 0.322449,-0.05878 0.40625,-0.142578 0.0838,-0.0838 0.142578,-0.206564 0.142578,-0.40625 v -2 c 0,-0.400314 0.140051,-0.778723 0.40625,-1.044922 0.266199,-0.266199 0.644608,-0.40625 1.044922,-0.40625 0.400314,0 0.778723,0.140051 1.044922,0.40625 0.266199,0.266199 0.40625,0.644608 0.40625,1.044922 v 3 c 0,0.199686 0.05878,0.322449 0.142578,0.40625 0.0838,0.0838 0.206564,0.142578 0.40625,0.142578 0.199686,0 0.322449,-0.05878 0.40625,-0.142578 0.0838,-0.0838 0.142578,-0.206564 0.142578,-0.40625 v -1 c 0,-0.400314 0.140051,-0.778723 0.40625,-1.044922 0.266199,-0.266199 0.644608,-0.40625 1.044922,-0.40625 0.400314,0 0.778723,0.140051 1.044922,0.40625 0.266199,0.266199 0.40625,0.644608 0.40625,1.044922 v 3 c 0,2.365422 -0.514537,4.312055 -1.013672,6.308594 l 0.0039,-0.01172 c -0.40345,1.815526 -0.892826,3.579678 -0.990234,5.722656 A 0.45145663,0.45145663 0 0 1 32,36.451172 H 21.900391 A 0.45145663,0.45145663 0 0 1 21.451172,36.052734 C 21.268949,34.50384 20.366883,33.503929 19.267578,32.304688 a 0.45145663,0.45145663 0 0 1 -0.0293,-0.0332 c -0.588009,-0.784011 -1.201373,-1.503012 -1.820312,-2.533203 l -0.002,-0.002 c -8.56e-4,-0.0014 -0.0011,-0.0025 -0.002,-0.0039 -1.007254,-1.612144 -1.886276,-3.221277 -2.554687,-4.570313 -0.669307,-1.350844 -1.123882,-2.415821 -1.294922,-3.042968 a 0.45145663,0.45145663 0 0 1 -0.0078,-0.03125 c -0.05341,-0.267047 -0.08399,-0.487278 -0.08399,-0.6875 0,-0.200222 -8.21e-4,-0.409335 0.208985,-0.619141 0.156606,-0.156607 0.331654,-0.197642 0.466797,-0.216797 0.135142,-0.01916 0.251856,-0.01563 0.351562,-0.01563 0.379126,0 0.656448,0.179905 0.982422,0.419922 0.325974,0.240017 0.676911,0.568581 1.03125,0.96875 0.708677,0.800338 1.432333,1.886537 1.90625,3.097656 a 0.45145663,0.45145663 0 0 1 0.03125,0.164063 V 26 c 0,0.199686 0.05878,0.322449 0.142578,0.40625 0.0838,0.0838 0.206564,0.142578 0.40625,0.142578 0.199686,0 0.322449,-0.05878 0.40625,-0.142578 0.0838,-0.0838 0.142578,-0.206564 0.142578,-0.40625 V 11 c 0,-0.400314 0.140051,-0.778723 0.40625,-1.0449219 C 20.221277,9.6888792 20.599686,9.5488281 21,9.5488281 Z"
             style="fill:#000000;fill-opacity:1;stroke:none"
             transform="matrix(2.3653485,-1.3656346,0,2.7282983,-654.52754,100.37538)" /><path
             style="fill:#ffffff;stroke:none;stroke-width:0.264583px;stroke-linecap:butt;stroke-linejoin:miter;stroke-opacity:1"
             d="m -608.5188,144.9917 -0.0167,-41.71542 c 0,0 0.88582,-4.834831 3.58695,-5.863542 2.70116,-1.02871 4.02304,1.072455 4.02304,2.096196 0,1.023746 -0.081,23.091576 0.17439,25.281896 0.2554,2.19033 1.83539,-1.42443 1.83539,-1.42443 l 0.18722,-7.43353 c 0,0 0.7525,-3.09281 3.35814,-4.69202 2.60567,-1.5992 3.60998,1.12473 3.60995,1.99079 0,0.86606 -0.0634,8.90189 -0.0634,8.90189 0,0 0.7235,0.75428 1.28275,0.29488 0.55928,-0.4594 1.03998,-1.58836 1.16261,-2.54692 0.12263,-0.95855 0.003,-6.55401 0.003,-6.55401 0,0 1.16183,-3.59034 3.23527,-4.55953 2.07341,-0.96919 3.43056,-0.80007 3.62463,0.48454 0.19407,1.28461 -0.013,9.52255 -0.013,9.52255 0,0 0.28307,1.67694 1.20062,1.03537 0.91758,-0.64156 1.4823,-1.75879 1.52914,-2.51304 0.0468,-0.75426 -0.0533,-4.11724 -0.0533,-4.11724 0,0 1.40557,-3.93424 3.38876,-4.73164 1.98318,-0.79741 3.74517,-0.50155 3.64611,3.09313 -0.0991,3.59467 -0.20502,9.86378 -0.20502,9.86378 0,0 -2.06836,18.07525 -3.17371,21.26268 -1.10535,3.18743 -1.11844,11.6567 -1.32241,12.72005 -0.20399,1.06335 -25.91226,15.24416 -25.91226,15.24416 0,0 -0.10996,-2.46078 -1.5267,-4.76563 -1.41671,-2.30486 -3.02826,-2.17814 -5.22163,-4.29921 -2.19334,-2.12107 -8.30085,-10.72181 -9.95492,-13.86189 -1.65407,-3.14007 -4.21656,-7.0154 -2.69436,-9.04006 1.52223,-2.02466 3.76227,-3.36199 5.34744,-2.80174 1.58517,0.56026 5.66039,3.63279 6.17236,5.24078 0.51197,1.60798 1.01489,4.70876 1.01489,4.70876 z"
             id="path24795"
             sodipodi:nodetypes="ccsssccsscsscsscsscsscsscsssssscc" /></g></g></g><g
       id="g26481"
       transform="translate(7.6156298,5.513489)"><g
         id="g25115"
         transform="translate(173.55492,50.223076)"><g
           id="g24969"><g
             id="g23531"
             transform="translate(-219.55852,32.065577)"><g
               id="g3858"><path
                 style="fill:#cb3b0d;fill-opacity:1;stroke:none;stroke-width:0.264583px;stroke-linecap:butt;stroke-linejoin:miter;stroke-opacity:1"
                 d="M 45.22003,44.979168 70.424979,30.427084 91.04721,42.333335 V 87.312504 A 18.33087,18.33087 0 0 1 81.881775,103.18751 L 45.22003,124.35417 a 6.1102903,6.1102903 0 0 1 -9.165435,-5.29166 V 60.854168 a 18.330871,18.330871 0 0 1 9.165435,-15.875 z"
                 id="path683" /><path
                 style="fill:#cb3b0d;fill-opacity:1;stroke:none;stroke-width:0.264583px;stroke-linecap:butt;stroke-linejoin:miter;stroke-opacity:1"
                 d="m 39.111428,124.35514 4.459445,2.57277 -1.868819,-1.77267 z"
                 id="path3853"
                 sodipodi:nodetypes="cccc" /><path
                 style="display:inline;fill:#f15929;fill-opacity:1;stroke:none;stroke-width:0.264583px;stroke-linecap:butt;stroke-linejoin:miter;stroke-opacity:1"
                 d="M 49.802748,47.625001 75.007697,33.072917 95.629928,44.979168 V 89.958337 A 18.33087,18.33087 120 0 1 86.464493,105.83334 L 49.802748,127 a 6.1102903,6.1102903 30 0 1 -9.165435,-5.29166 V 63.500001 a 18.330871,18.330871 120 0 1 9.165435,-15.875 z"
                 id="path581" /></g><g
               transform="matrix(1.7704468,-1.0221679,1.1223046e-8,2.0443467,46.781835,101.38203)"
               ns5:version="1.8.2"
               ns5:texconverter="pdflatex"
               ns5:pdfconverter="inkscape"
               ns5:text="\\LaTeX"
               ns5:preamble="/home/sylcha/.config/inkscape/extensions/textext/default_packages.tex"
               ns5:scale="1.0"
               ns5:alignment="middle center"
               ns5:stroke-to-path="0"
               ns5:inkscapeversion="1.2.1"
               ns5:jacobian_sqrt="0.352778"
               id="g296"
               style="fill:#ffffff"><defs
                 id="id-34f3f3de-ca0f-4479-ac9c-981c5d4b1ca0" /><g
                 fill="#000000"
                 fill-opacity="1"
                 id="id-3a409ad4-e388-449d-b005-1ed6e0ed87d5"
                 transform="translate(-149.04,-127.753)"
                 style="fill:#ffffff"><g
                   transform="translate(148.712,134.765)"
                   id="g277"
                   style="fill:#ffffff"><path
                     d="m 5.796875,-2.578125 h -0.25 c -0.109375,1.015625 -0.25,2.265625 -2,2.265625 h -0.8125 C 2.265625,-0.3125 2.25,-0.375 2.25,-0.703125 v -5.3125 C 2.25,-6.359375 2.25,-6.5 3.1875,-6.5 H 3.515625 V -6.8125 C 3.15625,-6.78125 2.25,-6.78125 1.84375,-6.78125 c -0.390625,0 -1.171875,0 -1.515625,-0.03125 V -6.5 H 0.5625 c 0.765625,0 0.796875,0.109375 0.796875,0.46875 v 5.25 c 0,0.359375 -0.03125,0.46875 -0.796875,0.46875 H 0.328125 V 0 h 5.1875 z m 0,0"
                     id="id-2551b306-b23f-4774-8591-67ce480a5db1"
                     style="fill:#ffffff" /></g></g><g
                 fill="#000000"
                 fill-opacity="1"
                 id="id-db7d7966-911d-4965-a6c9-1ace0e315d76"
                 transform="translate(-149.04,-127.753)"
                 style="fill:#ffffff"><g
                   transform="translate(151.352,132.722)"
                   id="g281"
                   style="fill:#ffffff"><path
                     d="M 3.125,-4.8125 C 3.09375,-4.921875 3.0625,-4.96875 2.9375,-4.96875 c -0.140625,0 -0.15625,0.046875 -0.203125,0.15625 L 1.125,-0.734375 C 1.0625,-0.5625 0.9375,-0.25 0.3125,-0.25 V 0 C 0.546875,-0.015625 0.796875,-0.03125 1.03125,-0.03125 1.3125,-0.03125 1.828125,0 1.875,0 v -0.25 c -0.3125,0 -0.515625,-0.140625 -0.515625,-0.328125 0,-0.0625 0.015625,-0.078125 0.046875,-0.140625 L 1.734375,-1.578125 H 3.71875 L 4.125,-0.5625 c 0,0.03125 0.03125,0.078125 0.03125,0.109375 C 4.15625,-0.25 3.78125,-0.25 3.59375,-0.25 V 0 C 3.9375,-0.015625 4.390625,-0.03125 4.625,-0.03125 4.953125,-0.03125 5.484375,0 5.546875,0 v -0.25 h -0.125 c -0.46875,0 -0.515625,-0.078125 -0.59375,-0.265625 z m -0.40625,0.71875 0.890625,2.265625 h -1.78125 z m 0,0"
                     id="id-b5d82d13-a63c-44c8-984c-78455d2c88e0"
                     style="fill:#ffffff" /></g></g><g
                 fill="#000000"
                 fill-opacity="1"
                 id="id-99d693e8-0133-49a9-93f5-44165213e5d5"
                 transform="translate(-149.04,-127.753)"
                 style="fill:#ffffff"><g
                   transform="translate(155.739,134.765)"
                   id="g285"
                   style="fill:#ffffff"><path
                     d="m 6.640625,-6.75 h -6.09375 l -0.1875,2.25 h 0.25 C 0.75,-6.109375 0.890625,-6.4375 2.40625,-6.4375 c 0.171875,0 0.4375,0 0.53125,0.015625 0.21875,0.046875 0.21875,0.15625 0.21875,0.375 v 5.265625 c 0,0.328125 0,0.46875 -1.046875,0.46875 H 1.703125 V 0 C 2.109375,-0.03125 3.125,-0.03125 3.59375,-0.03125 c 0.453125,0 1.484375,0 1.890625,0.03125 v -0.3125 h -0.40625 c -1.046875,0 -1.046875,-0.140625 -1.046875,-0.46875 v -5.265625 c 0,-0.1875 0,-0.328125 0.1875,-0.375 0.109375,-0.015625 0.375,-0.015625 0.5625,-0.015625 1.515625,0 1.65625,0.328125 1.796875,1.9375 h 0.25 z m 0,0"
                     id="id-9e34059a-c2d6-422f-a2bc-f0521f28d3d0"
                     style="fill:#ffffff" /></g></g><g
                 fill="#000000"
                 fill-opacity="1"
                 id="id-36ccaf7e-6c04-4692-85fc-a4218e4464ac"
                 transform="translate(-149.04,-127.753)"
                 style="fill:#ffffff"><g
                   transform="translate(161.273,136.909)"
                   id="g289"
                   style="fill:#ffffff"><path
                     d="m 1.359375,-0.78125 c 0,0.359375 -0.03125,0.46875 -0.796875,0.46875 H 0.328125 V 0 h 5.75 L 6.5,-2.578125 H 6.25 C 6,-1.03125 5.765625,-0.3125 4.0625,-0.3125 H 2.734375 C 2.265625,-0.3125 2.25,-0.375 2.25,-0.703125 V -3.375 h 0.890625 c 0.96875,0 1.078125,0.328125 1.078125,1.171875 h 0.25 V -4.84375 h -0.25 c 0,0.859375 -0.109375,1.171875 -1.078125,1.171875 H 2.25 v -2.40625 c 0,-0.328125 0.015625,-0.390625 0.484375,-0.390625 h 1.28125 c 1.53125,0 1.796875,0.546875 1.953125,1.9375 h 0.25 l -0.28125,-2.25 H 0.328125 v 0.3125 H 0.5625 c 0.765625,0 0.796875,0.109375 0.796875,0.46875 z m 0,0"
                     id="id-1e2c34cb-0f0e-4f2b-83f3-ab5fe4fe59cd"
                     style="fill:#ffffff" /></g></g><g
                 fill="#000000"
                 fill-opacity="1"
                 id="id-1ceba1a5-3d86-40c2-96c7-986118cefe92"
                 transform="translate(-149.04,-127.753)"
                 style="fill:#ffffff"><g
                   transform="translate(166.808,134.765)"
                   id="g293"
                   style="fill:#ffffff"><path
                     d="m 4,-3.84375 1.375,-2.015625 c 0.21875,-0.3125 0.5625,-0.625 1.4375,-0.640625 v -0.3125 c -0.375,0.015625 -0.84375,0.03125 -1.09375,0.03125 -0.40625,0 -0.890625,0 -1.28125,-0.03125 V -6.5 c 0.390625,0.015625 0.609375,0.234375 0.609375,0.453125 0,0.109375 -0.015625,0.125 -0.078125,0.234375 L 3.828125,-4.125 2.546875,-6.046875 C 2.515625,-6.078125 2.46875,-6.15625 2.46875,-6.203125 2.46875,-6.3125 2.6875,-6.484375 3.125,-6.5 v -0.3125 c -0.359375,0.03125 -1.078125,0.03125 -1.453125,0.03125 -0.3125,0 -0.9375,0 -1.296875,-0.03125 V -6.5 h 0.1875 c 0.546875,0 0.734375,0.0625 0.921875,0.34375 L 3.3125,-3.375 1.6875,-0.96875 C 1.546875,-0.765625 1.25,-0.3125 0.234375,-0.3125 V 0 c 0.359375,-0.015625 0.78125,-0.03125 1.109375,-0.03125 0.375,0 0.921875,0 1.28125,0.03125 V -0.3125 C 2.15625,-0.3125 2,-0.59375 2,-0.765625 2,-0.859375 2.03125,-0.890625 2.09375,-1 l 1.421875,-2.09375 1.5625,2.375 c 0.03125,0.046875 0.0625,0.078125 0.0625,0.109375 0,0.125 -0.21875,0.296875 -0.65625,0.296875 V 0 C 4.828125,-0.03125 5.5625,-0.03125 5.9375,-0.03125 c 0.421875,0 0.875,0.015625 1.296875,0.03125 v -0.3125 h -0.1875 c -0.515625,0 -0.734375,-0.046875 -0.9375,-0.359375 z m 0,0"
                     id="id-ac0a2627-b881-4e1c-ae0e-ea3b1a5438be"
                     style="fill:#ffffff" /></g></g></g></g></g><g
           id="g24980"><g
             id="g23495"
             transform="translate(-218.77229,34.933229)"><g
               id="g392"
               transform="translate(-65.842262,-37.058591)"><path
                 style="fill:#cb3b0d;fill-opacity:1;stroke:none;stroke-width:0.264583px;stroke-linecap:butt;stroke-linejoin:miter;stroke-opacity:1"
                 d="M 45.22003,44.979168 70.424979,30.427084 91.04721,42.333335 V 87.312504 A 18.33087,18.33087 0 0 1 81.881775,103.18751 L 45.22003,124.35417 a 6.1102903,6.1102903 0 0 1 -9.165435,-5.29166 V 60.854168 a 18.330871,18.330871 0 0 1 9.165435,-15.875 z"
                 id="path386" /><path
                 style="fill:#cb3b0d;fill-opacity:1;stroke:none;stroke-width:0.264583px;stroke-linecap:butt;stroke-linejoin:miter;stroke-opacity:1"
                 d="m 39.111428,124.35514 4.459445,2.57277 -1.868819,-1.77267 z"
                 id="path388"
                 sodipodi:nodetypes="cccc" /><path
                 style="display:inline;fill:#f15929;fill-opacity:1;stroke:none;stroke-width:0.264583px;stroke-linecap:butt;stroke-linejoin:miter;stroke-opacity:1"
                 d="M 49.802748,47.625001 75.007697,33.072917 95.629928,44.979168 V 89.958337 A 18.33087,18.33087 120 0 1 86.464493,105.83334 L 49.802748,127 a 6.1102903,6.1102903 30 0 1 -9.165435,-5.29166 V 63.500001 a 18.330871,18.330871 120 0 1 9.165435,-15.875 z"
                 id="path390" /></g><g
               aria-label="PDF"
               id="text448"
               style="font-weight:bold;font-size:10.5833px;line-height:1.25;font-family:'Source Sans Pro';-inkscape-font-specification:'Source Sans Pro, Bold';fill:#ffffff;stroke-width:0.264583"
               transform="matrix(2.2442793,-1.2957352,0,2.5914842,184.76195,-136.0111)"><path
                 d="m -89.948959,37.626629 h 1.650995 v -2.285993 h 0.814914 c 1.449912,0 2.709325,-0.719664 2.709325,-2.370659 0,-1.693328 -1.238246,-2.233076 -2.751658,-2.233076 h -2.423576 z m 1.650995,-3.587739 v -2.000243 h 0.677331 c 0.804331,0 1.238246,0.243416 1.238246,0.93133 0,0.687915 -0.380999,1.068913 -1.195913,1.068913 z"
                 id="path500"
                 style="fill:#ffffff" /><path
                 d="m -83.598975,37.626629 h 2.074327 c 2.010827,0 3.397239,-1.09008 3.397239,-3.471322 0,-2.391826 -1.386412,-3.418406 -3.492489,-3.418406 h -1.979077 z m 1.650995,-1.322913 v -4.243903 h 0.232832 c 1.111247,0 1.904994,0.455082 1.904994,2.095494 0,1.629828 -0.793747,2.148409 -1.904994,2.148409 z"
                 id="path502"
                 style="fill:#ffffff" /><path
                 d="m -76.857422,37.626629 h 1.650994 v -2.635242 h 2.349493 v -1.375829 h -2.349493 V 32.11273 h 2.751658 v -1.375829 h -4.402652 z"
                 id="path504"
                 style="fill:#ffffff" /></g></g></g><g
           id="g24932"><g
             id="g23538"
             transform="translate(-222.37694,49.491875)"><g
               id="g588"
               transform="translate(65.842262,20.664224)"><path
                 style="fill:#cb3b0d;fill-opacity:1;stroke:none;stroke-width:0.264583px;stroke-linecap:butt;stroke-linejoin:miter;stroke-opacity:1"
                 d="M 45.22003,44.979168 70.424979,30.427084 91.04721,42.333335 V 87.312504 A 18.33087,18.33087 0 0 1 81.881775,103.18751 L 45.22003,124.35417 a 6.1102903,6.1102903 0 0 1 -9.165435,-5.29166 V 60.854168 a 18.330871,18.330871 0 0 1 9.165435,-15.875 z"
                 id="path582" /><path
                 style="fill:#cb3b0d;fill-opacity:1;stroke:none;stroke-width:0.264583px;stroke-linecap:butt;stroke-linejoin:miter;stroke-opacity:1"
                 d="m 39.111428,124.35514 4.459445,2.57277 -1.868819,-1.77267 z"
                 id="path584"
                 sodipodi:nodetypes="cccc" /><path
                 style="display:inline;fill:#f15929;fill-opacity:1;stroke:none;stroke-width:0.264583px;stroke-linecap:butt;stroke-linejoin:miter;stroke-opacity:1"
                 d="M 49.802748,47.625001 75.007697,33.072917 95.629928,44.979168 V 89.958337 A 18.33087,18.33087 120 0 1 86.464493,105.83334 L 49.802748,127 a 6.1102903,6.1102903 30 0 1 -9.165435,-5.29166 V 63.500001 a 18.330871,18.330871 120 0 1 9.165435,-15.875 z"
                 id="path586" /></g><path
               d="m 121.10211,116.3074 11.7089,-6.76013 V 96.026963 l -11.7089,6.760127 z m 2.92723,-11.8303 5.85444,-3.38006 v 6.7602 l -5.85444,3.38008 z m -2.92722,28.73075 11.70889,-6.76013 v -13.52036 l -11.7089,6.76013 z m 2.92722,-11.83029 5.85444,-3.38005 v 6.76015 l -5.85444,3.38006 z m 11.70888,-27.04063 v 13.5203 l 11.7089,-6.76014 V 87.5768 Z m 8.78167,5.070149 -5.85444,3.380061 v -6.760211 l 5.85444,-3.380057 z m -8.76703,11.821801 2.92722,-1.69004 v 3.38011 l -2.92722,1.69004 z m 2.92722,1.69007 2.92723,-1.69003 v 3.38004 l -2.92723,1.69003 z m -2.92722,5.07009 2.92722,-1.69005 v 3.38012 l -2.92722,1.69003 z m 5.85445,-3.38008 2.92722,-1.69003 v 3.38011 l -2.92722,1.69004 z m 2.92722,1.69008 2.92722,-1.69003 v 3.38009 l -2.92722,1.69004 z m -5.85445,3.38007 2.92723,-1.69003 v 3.38009 l -2.92723,1.69003 z m 2.92723,-11.83031 2.92722,-1.69004 v 3.38013 l -2.92722,1.69003 z m 2.92722,1.69009 2.92722,-1.69004 v 3.38005 l -2.92722,1.69003 z"
               id="path573"
               style="fill:#ffffff;stroke-width:1.57275" /></g></g><g
           id="g24990"><g
             id="g10082"
             transform="matrix(0.65736143,0,0,0.65736143,-236.14792,54.554633)"><path
               id="path4394"
               style="fill:#cb3b0d;fill-opacity:1;stroke-width:0.246223"
               d="m -100.28085,-53.076076 c -9.99011,5.767979 -18.08864,20.097023 -18.08876,32.005137 0.003,3.643876 0.78212,6.779489 2.26361,9.113712 -1.30057,0.418493 -2.62861,1.017332 -3.96065,1.785934 -10.13582,5.8521363 -18.35242,20.0839708 -18.35236,31.787841 9e-5,5.851796 1.68696,10.831349 5.37538,11.881123 3.59616,1.023518 7.90916,1.640527 12.97698,-1.285275 5.99118,-3.462007 11.60395,-10.082082 15.03569,-17.734106 2.25408,3.323959 5.920368,5.014004 10.425815,5.0638 4.505447,0.04979 9.850048,-1.540658 15.460738,-4.777693 9.088514,-5.2521213 17.6207,-14.11466675 22.932386,-23.8203089 2.893854,1.4761032 6.735153,1.0145385 10.730005,-1.2893011 8.603033,-4.967105 15.577127,-16.962649 15.577212,-26.793033 -3.94e-4,-7.657467 -4.287011,-11.981753 -10.64363,-10.737161 0.104668,-0.967959 0.158201,-1.914162 0.160217,-2.831884 1.56e-4,-11.015686 -7.281598,-15.741582 -16.264174,-10.555533 -3.135968,1.81491 -6.20404,4.702325 -8.834711,8.314497 -3.721825,-5.491028 -12.0001,-5.769483 -21.302925,-0.716564 -3.431563,-2.599309 -8.338879,-2.385126 -13.490823,0.588815 z"
               sodipodi:nodetypes="cccccsccscccccccccc" /><path
               style="fill:#cb3b0d;fill-opacity:1;stroke:none;stroke-width:0.264583px;stroke-linecap:butt;stroke-linejoin:miter;stroke-opacity:1"
               d="m -100.41678,18.352208 6.767517,2.259844 -5.77488,-4.327357 z"
               id="path5495" /><path
               style="fill:#cb3b0d;fill-opacity:1;stroke:none;stroke-width:0.264583px;stroke-linecap:butt;stroke-linejoin:miter;stroke-opacity:1"
               d="m -69.718456,-56.378805 4.729268,1.48807 -2.964947,-0.539329 z"
               id="path5704" /><path
               id="path654"
               style="fill:#f15929;fill-opacity:1;stroke-width:0.246223"
               d="m -94.674034,-51.269671 c -9.990106,5.767979 -18.088636,20.097023 -18.088756,32.005137 0.003,3.643876 0.78212,6.779489 2.26361,9.113712 -1.30057,0.4184933 -2.62861,1.0173323 -3.96065,1.7859343 -10.13582,5.8521363 -18.35242,20.0839707 -18.35236,31.7878407 9e-5,5.851796 1.68696,10.831349 5.37538,11.881123 3.59616,1.023518 7.90916,1.640527 12.97698,-1.285275 5.99118,-3.462007 11.60395,-10.082082 15.035686,-17.734106 2.25408,3.323959 5.920368,5.014004 10.425815,5.0638 4.505447,0.04979 9.850048,-1.540658 15.460738,-4.777693 9.088514,-5.252121 17.6207,-14.1146665 22.932386,-23.8203086 2.893854,1.4761032 6.735153,1.0145385 10.730005,-1.2893011 8.603033,-4.9671053 15.577127,-16.9626493 15.577212,-26.7930333 -3.94e-4,-7.657467 -4.287011,-11.981753 -10.64363,-10.737161 0.104668,-0.967959 0.158201,-1.914162 0.160217,-2.831884 1.56e-4,-11.015686 -7.281598,-15.741582 -16.264174,-10.555533 -3.135968,1.81491 -6.20404,4.702325 -8.834711,8.314497 -3.721825,-5.491028 -12.0001,-5.769483 -21.302925,-0.716564 -3.431563,-2.599309 -8.338879,-2.385126 -13.490823,0.588815 z"
               sodipodi:nodetypes="cccccsccscccccccccc" /><g
               id="g5712"
               style="fill:#ffffff"
               transform="matrix(0.63139808,-0.36453785,0,0.72907957,-35.47925,-135.49534)"><path
                 d="m -78.243568,126.32479 c 3.148224,-3.14819 8.638863,-3.14819 11.787087,0 l 1.964509,1.96451 3.929029,-3.92902 -1.96452,-1.96451 c -2.620277,-2.62309 -6.110268,-4.07079 -9.822567,-4.07079 -3.712288,0 -7.20229,1.4477 -9.822567,4.07079 l -5.89632,5.89353 a 13.915536,13.915536 0 0 0 0,19.64793 13.84607,13.84607 0 0 0 9.822577,4.06239 13.843291,13.843291 0 0 0 9.825339,-4.06239 l 1.96452,-1.96451 -3.929029,-3.92902 -1.96452,1.96451 a 8.3554346,8.3554346 0 0 1 -11.789859,0 8.3498774,8.3498774 0 0 1 0,-11.78989 z"
                 id="path590"
                 style="fill:#ffffff;stroke-width:2.77866" /><path
                 d="m -68.421001,108.64137 -1.964509,1.96451 3.929029,3.92902 1.964509,-1.96451 a 8.3554346,8.3554346 0 0 1 11.789859,0 8.3498774,8.3498774 0 0 1 0,11.78989 l -5.896321,5.89353 c -3.148224,3.14819 -8.638852,3.14819 -11.787076,0 l -1.96452,-1.96451 -3.929018,3.92902 1.964509,1.96451 c 2.620277,2.62309 6.110279,4.07069 9.822567,4.07069 3.712288,0 7.20229,-1.4476 9.822567,-4.07069 l 5.89632,-5.89353 a 13.915536,13.915536 0 0 0 0,-19.64793 13.909979,13.909979 0 0 0 -19.647916,0 z"
                 id="path592"
                 style="fill:#ffffff;stroke-width:2.77866" /></g></g></g><g
           id="g25002"><g
             id="g23485"
             transform="translate(-187.17105,72.536323)"><g
               id="g5798"
               transform="translate(-224.78642,-148.78915)"><path
                 style="fill:#cb3b0d;fill-opacity:1;stroke:none;stroke-width:0.264583px;stroke-linecap:butt;stroke-linejoin:miter;stroke-opacity:1"
                 d="M 45.22003,44.979168 70.424979,30.427084 91.04721,42.333335 V 87.312504 A 18.33087,18.33087 0 0 1 81.881775,103.18751 L 45.22003,124.35417 a 6.1102903,6.1102903 0 0 1 -9.165435,-5.29166 V 60.854168 a 18.330871,18.330871 0 0 1 9.165435,-15.875 z"
                 id="path5792" /><path
                 style="fill:#cb3b0d;fill-opacity:1;stroke:none;stroke-width:0.264583px;stroke-linecap:butt;stroke-linejoin:miter;stroke-opacity:1"
                 d="m 39.111428,124.35514 4.459445,2.57277 -1.868819,-1.77267 z"
                 id="path5794"
                 sodipodi:nodetypes="cccc" /><path
                 style="display:inline;fill:#f15929;fill-opacity:1;stroke:none;stroke-width:0.264583px;stroke-linecap:butt;stroke-linejoin:miter;stroke-opacity:1"
                 d="M 49.802748,47.625001 75.007697,33.072917 95.629928,44.979168 V 89.958337 A 18.33087,18.33087 120 0 1 86.464493,105.83334 L 49.802748,127 a 6.1102903,6.1102903 30 0 1 -9.165435,-5.29166 V 63.500001 a 18.330871,18.330871 120 0 1 9.165435,-15.875 z"
                 id="path5796" /></g><g
               aria-label="HTML"
               id="text5781"
               style="font-weight:bold;font-size:10.5833px;line-height:1.25;font-family:'Source Sans Pro';-inkscape-font-specification:'Source Sans Pro, Bold';fill:#ffffff;stroke-width:0.264583"
               transform="matrix(1.7436941,-1.0067223,-1.885507e-8,2.0134552,679.62888,-466.07014)"><path
                 d="m -491.71294,-30.869471 h 1.651 v -2.836324 h 2.27541 v 2.836324 h 1.64041 v -6.889728 h -1.64041 v 2.624659 h -2.27541 v -2.624659 h -1.651 z"
                 id="path5783"
                 style="fill:#ffffff" /><path
                 d="m -483.21454,-30.869471 h 1.64041 v -5.513899 h 1.87325 v -1.375829 h -5.3869 v 1.375829 h 1.87324 z"
                 id="path5785"
                 style="fill:#ffffff" /><path
                 d="m -478.64255,-30.869471 h 1.48166 v -2.391825 c 0,-0.677331 -0.13759,-1.852078 -0.22225,-2.529409 h 0.0423 l 0.55033,1.799161 0.92075,2.539992 h 0.93133 l 0.93133,-2.539992 0.5715,-1.799161 h 0.0423 c -0.0847,0.677331 -0.22225,1.852078 -0.22225,2.529409 v 2.391825 h 1.49225 v -6.889728 h -1.79916 l -1.04775,2.995074 c -0.13758,0.402166 -0.24342,0.814914 -0.37042,1.248829 h -0.0423 c -0.127,-0.433915 -0.24341,-0.846663 -0.37041,-1.248829 l -1.09008,-2.995074 h -1.79916 z"
                 id="path5787"
                 style="fill:#ffffff" /><path
                 d="m -470.53574,-30.869471 h 4.32857 V -32.2453 h -2.67757 v -5.513899 h -1.651 z"
                 id="path5789"
                 style="fill:#ffffff" /></g></g></g><g
           id="g25012"><g
             id="g23474"
             transform="translate(-189.42124,75.701887)"><g
               id="g6013"
               transform="translate(-288.70611,-190.15521)"><path
                 style="fill:#cb3b0d;fill-opacity:1;stroke:none;stroke-width:0.264583px;stroke-linecap:butt;stroke-linejoin:miter;stroke-opacity:1"
                 d="M 45.22003,44.979168 70.424979,30.427084 91.04721,42.333335 V 87.312504 A 18.33087,18.33087 0 0 1 81.881775,103.18751 L 45.22003,124.35417 a 6.1102903,6.1102903 0 0 1 -9.165435,-5.29166 V 60.854168 a 18.330871,18.330871 0 0 1 9.165435,-15.875 z"
                 id="path6007" /><path
                 style="fill:#cb3b0d;fill-opacity:1;stroke:none;stroke-width:0.264583px;stroke-linecap:butt;stroke-linejoin:miter;stroke-opacity:1"
                 d="m 39.111428,124.35514 4.459445,2.57277 -1.868819,-1.77267 z"
                 id="path6009"
                 sodipodi:nodetypes="cccc" /><path
                 style="display:inline;fill:#f15929;fill-opacity:1;stroke:none;stroke-width:0.264583px;stroke-linecap:butt;stroke-linejoin:miter;stroke-opacity:1"
                 d="M 49.802748,47.625001 75.007697,33.072917 95.629928,44.979168 V 89.958337 A 18.33087,18.33087 120 0 1 86.464493,105.83334 L 49.802748,127 a 6.1102903,6.1102903 30 0 1 -9.165435,-5.29166 V 63.500001 a 18.330871,18.330871 120 0 1 9.165435,-15.875 z"
                 id="path6011" /></g><g
               id="g5959"
               transform="matrix(0.10624669,-0.06134155,0,0.12268376,-240.15936,-109.81798)"
               style="fill:#ffffff"><path
                 fill="#f98012"
                 d="M 289.61,309.77 V 201.51 c 0,-22.62667 -9.33333,-33.94333 -28,-33.95 -18.66667,-0.007 -28.02,11.31 -28.06,33.95 V 309.77 H 178.4 V 201.51 c 0,-22.62667 -9.19,-33.94333 -27.57,-33.95 -18.7,0 -28.03333,11.31667 -28,33.95 V 309.77 H 67.67 V 195.12 c 0,-23.62 8.2,-41.49667 24.6,-53.63 14.44,-10.83333 33.96,-16.25 58.56,-16.25 24.94,0 43.31333,6.39667 55.12,19.19 10.17333,-12.79333 28.71333,-19.19 55.62,-19.19 24.6,0 44.11333,5.41667 58.54,16.25 16.4,12.12667 24.60333,30.00333 24.61,53.63 v 114.65 z"
                 id="path5800"
                 sodipodi:nodetypes="csscccsccccscscscccc"
                 style="fill:#ffffff;stroke:none" /><path
                 fill="#333"
                 d="m 174.74,116.9 54.74,-40 -0.7,-2.44 C 130,86.57 85.08,95.15 0,144.47 l 0.79,2.24 6.76,0.07 c -0.62,6.81 -1.7,23.64 -0.32,48.95 -9.44,27.32 -0.24,45.88 8.4,66.07 1.37,-21 1.23,-44 -5.22,-66.89 -1.35,-25.14 -0.24,-41.67 0.37,-48.1 l 56.4,0.54 a 258,258 0 0 0 1.67,33.06 c 50.4,17.71 101.09,-0.06 128,-43.72 -7.47,-8.37 -22.11,-19.79 -22.11,-19.79 z"
                 id="path5802"
                 style="fill:#ffffff;stroke:none" /></g></g></g><g
           id="g25022"><g
             id="g23465"
             transform="translate(-181.63542,82.585325)"><g
               id="g10067"
               transform="translate(-363.20593,-235.29181)"><path
                 style="fill:#cb3b0d;fill-opacity:1;stroke:none;stroke-width:0.264583px;stroke-linecap:butt;stroke-linejoin:miter;stroke-opacity:1"
                 d="M 45.22003,44.979168 70.424979,30.427084 91.04721,42.333335 V 87.312504 A 18.33087,18.33087 0 0 1 81.881775,103.18751 L 45.22003,124.35417 a 6.1102903,6.1102903 0 0 1 -9.165435,-5.29166 V 60.854168 a 18.330871,18.330871 0 0 1 9.165435,-15.875 z"
                 id="path10061" /><path
                 style="fill:#cb3b0d;fill-opacity:1;stroke:none;stroke-width:0.264583px;stroke-linecap:butt;stroke-linejoin:miter;stroke-opacity:1"
                 d="m 39.111428,124.35514 4.459445,2.57277 -1.868819,-1.77267 z"
                 id="path10063"
                 sodipodi:nodetypes="cccc" /><path
                 style="display:inline;fill:#f15929;fill-opacity:1;stroke:none;stroke-width:0.264583px;stroke-linecap:butt;stroke-linejoin:miter;stroke-opacity:1"
                 d="M 49.802748,47.625001 75.007697,33.072917 95.629928,44.979168 V 89.958337 A 18.33087,18.33087 120 0 1 86.464493,105.83334 L 49.802748,127 a 6.1102903,6.1102903 30 0 1 -9.165435,-5.29166 V 63.500001 a 18.330871,18.330871 120 0 1 9.165435,-15.875 z"
                 id="path10065" /></g><g
               id="g10059"
               transform="matrix(1.7986519,-1.0384521,3.2501325e-8,2.0613833,34.774541,-478.97807)"><rect
                 style="display:inline;fill:none;fill-opacity:1;stroke:#ffffff;stroke-width:1.32162;stroke-dasharray:none;stroke-opacity:1"
                 id="rect9846"
                 width="13.844572"
                 height="13.844572"
                 x="-190.97725"
                 y="61.540623" /><path
                 style="display:inline;fill:#ffffff;fill-opacity:1;stroke-width:0.429796"
                 d="m -180.96321,73.231959 c -3.92077,-4.894659 -3.67251,-4.794545 -6.18246,-2.493143 -4.92035,4.51155 -5.22097,4.478977 -1.20711,-0.130797 1.25781,-1.444542 2.28691,-2.71199 2.28691,-2.816549 0,-0.104556 -0.96403,-0.663335 -2.14229,-1.241722 -2.35663,-1.156824 -2.49427,-1.446333 -1.37759,-2.897505 l 0.75896,-0.986299 1.76736,1.280259 c 0.97203,0.704142 1.90219,1.498468 2.06703,1.76517 0.40593,0.656815 2.25432,-1.893384 2.87581,-3.967723 0.33244,-1.109607 0.73345,-1.617962 1.27631,-1.617962 1.30435,0 0.94555,1.705576 -0.9782,4.649796 -1.76977,2.708545 -1.76977,2.708545 -0.91916,3.649679 1.64855,1.824006 4.44629,6.442583 4.31513,7.123565 -0.0872,0.453092 -0.9579,-0.340821 -2.5407,-2.316769 z"
                 id="path6447" /></g></g></g></g><path
         style="fill:#f15929;fill-opacity:1;stroke:none;stroke-width:0.264583px;stroke-linecap:butt;stroke-linejoin:miter;stroke-opacity:1"
         d="m -355.16064,33.072918 11.4568,6.614583 5.72839,-9.921875 z"
         id="path25117" /><path
         style="fill:#f15929;fill-opacity:1;stroke:none;stroke-width:0.264583px;stroke-linecap:butt;stroke-linejoin:miter;stroke-opacity:1"
         d="m -291.5726,69.875098 11.4568,6.614583 5.72839,-9.921875 z"
         id="path25257" /><path
         style="fill:#f15929;fill-opacity:1;stroke:none;stroke-width:0.264583px;stroke-linecap:butt;stroke-linejoin:miter;stroke-opacity:1"
         d="m -223.06696,109.11237 11.4568,6.61458 5.72839,-9.92187 z"
         id="path25259" /><path
         style="fill:#f15929;fill-opacity:1;stroke:none;stroke-width:0.264583px;stroke-linecap:butt;stroke-linejoin:miter;stroke-opacity:1"
         d="m -175.12396,137.31746 11.4568,6.61458 5.72839,-9.92187 z"
         id="path25261" /><path
         style="fill:#f15929;fill-opacity:1;stroke:none;stroke-width:0.264583px;stroke-linecap:butt;stroke-linejoin:miter;stroke-opacity:1"
         d="m -96.279103,182.09516 11.4568,6.61458 5.72839,-9.92187 z"
         id="path25263" /><path
         style="fill:#f15929;fill-opacity:1;stroke:none;stroke-width:0.264583px;stroke-linecap:butt;stroke-linejoin:miter;stroke-opacity:1"
         d="m -32.087652,219.31913 11.4568,6.61458 5.72839,-9.92187 z"
         id="path25265" /><path
         style="fill:#f15929;fill-opacity:1;stroke:none;stroke-width:0.264583px;stroke-linecap:butt;stroke-linejoin:miter;stroke-opacity:1"
         d="m 31.527606,256.16994 11.4568,6.61458 5.72839,-9.92187 z"
         id="path25267" /></g><path
       style="fill:#f15929;fill-opacity:1;stroke:none;stroke-width:0.264583px;stroke-linecap:butt;stroke-linejoin:miter;stroke-opacity:1"
       d="m -85.393787,308.13959 -6.61459,-11.45681 -9.921873,5.7284 z"
       id="path25269" /><path
       style="fill:none;stroke:#f15929;stroke-width:2.11667;stroke-linecap:butt;stroke-linejoin:round;stroke-dasharray:none;stroke-opacity:1"
       d="M -363.64014,54.280408 23.240092,278.18261 46.183414,265.16005"
       id="path26483"
       sodipodi:nodetypes="ccc" /><path
       style="fill:none;stroke:#f15929;stroke-width:2.11667;stroke-linecap:butt;stroke-linejoin:miter;stroke-dasharray:none;stroke-opacity:1"
       d="m -40.853773,240.40949 22.592845,-12.82594"
       id="path26554" /><path
       style="fill:none;stroke:#f15929;stroke-width:2.11667;stroke-linecap:butt;stroke-linejoin:miter;stroke-dasharray:none;stroke-opacity:1"
       d="m -105.01657,203.10451 22.592844,-12.82594"
       id="path26556" /><path
       style="fill:none;stroke:#f15929;stroke-width:2.11667;stroke-linecap:butt;stroke-linejoin:miter;stroke-dasharray:none;stroke-opacity:1"
       d="m -231.44749,130.24872 22.59285,-12.82594"
       id="path26558" /><path
       style="fill:none;stroke:#f15929;stroke-width:2.11667;stroke-linecap:butt;stroke-linejoin:miter;stroke-dasharray:none;stroke-opacity:1"
       d="m -299.49054,91.167102 22.59285,-12.82594"
       id="path26560" /><path
       style="fill:none;stroke:#f15929;stroke-width:2.11667;stroke-linecap:butt;stroke-linejoin:miter;stroke-dasharray:none;stroke-opacity:1"
       d="m -364.27318,54.59396 22.59285,-12.82594"
       id="path26562" /><path
       style="fill:none;stroke:#f15929;stroke-width:2.11667;stroke-linecap:butt;stroke-linejoin:miter;stroke-dasharray:none;stroke-opacity:1"
       d="m -262.93091,203.93541 171.851923,99.21875"
       id="path26564" /><path
       style="fill:#f15929;fill-opacity:1;stroke:none;stroke-width:0.264583px;stroke-linecap:butt;stroke-linejoin:miter;stroke-opacity:1"
       d="m -433.20812,104.5932 6.61459,11.4568 9.92187,-5.72841 z"
       id="path25271" /><path
       style="fill:none;stroke:#f15929;stroke-width:2.11667;stroke-linecap:butt;stroke-linejoin:miter;stroke-dasharray:none;stroke-opacity:1"
       d="m -422.56035,112.20959 160.96045,92.36024 v 0 0"
       id="path26635"
       sodipodi:nodetypes="cccc" /></g><metadata
     id="metadata14583"><rdf:RDF><cc:Work
         rdf:about=""><cc:license
           rdf:resource="http://creativecommons.org/licenses/by-nc-sa/4.0/" /><dc:creator><cc:Agent><dc:title>sylvain</dc:title></cc:Agent></dc:creator></cc:Work><cc:License
         rdf:about="http://creativecommons.org/licenses/by-nc-sa/4.0/"><cc:permits
           rdf:resource="http://creativecommons.org/ns#Reproduction" /><cc:permits
           rdf:resource="http://creativecommons.org/ns#Distribution" /><cc:requires
           rdf:resource="http://creativecommons.org/ns#Notice" /><cc:requires
           rdf:resource="http://creativecommons.org/ns#Attribution" /><cc:prohibits
           rdf:resource="http://creativecommons.org/ns#CommercialUse" /><cc:permits
           rdf:resource="http://creativecommons.org/ns#DerivativeWorks" /><cc:requires
           rdf:resource="http://creativecommons.org/ns#ShareAlike" /></cc:License></rdf:RDF></metadata></svg>
